<mxfile host="app.diagrams.net" modified="2024-08-03T02:47:37.473Z" agent="Mozilla/5.0 (Windows NT 10.0; Win64; x64) AppleWebKit/537.36 (KHTML, like Gecko) Chrome/127.0.0.0 Safari/537.36 Edg/127.0.0.0" etag="JaLNS1g22f1v0y7HT0yd" version="24.7.1" type="device">
  <diagram name="Page-1" id="0MMZKi2HX52psnjvLXj_">
    <mxGraphModel dx="2248" dy="804" grid="1" gridSize="10" guides="1" tooltips="1" connect="1" arrows="1" fold="1" page="1" pageScale="1" pageWidth="827" pageHeight="1169" math="0" shadow="0">
      <root>
        <mxCell id="0" />
        <mxCell id="1" parent="0" />
        <mxCell id="io0zbL7cQPA-m2ZbIYGQ-1" value="&lt;font style=&quot;font-size: 16px;&quot;&gt;Client&lt;/font&gt;" style="shape=umlActor;verticalLabelPosition=bottom;verticalAlign=top;html=1;outlineConnect=0;labelBackgroundColor=none;fillColor=#ffe6cc;strokeColor=#d79b00;" parent="1" vertex="1">
          <mxGeometry x="399" y="70" width="41" height="70" as="geometry" />
        </mxCell>
        <mxCell id="io0zbL7cQPA-m2ZbIYGQ-4" value="API Gateway" style="rounded=0;whiteSpace=wrap;html=1;fontSize=16;labelBackgroundColor=none;fillColor=#fff2cc;strokeColor=#d6b656;gradientColor=#ffd966;" parent="1" vertex="1">
          <mxGeometry x="-80" y="310" width="1000" height="60" as="geometry" />
        </mxCell>
        <mxCell id="io0zbL7cQPA-m2ZbIYGQ-6" value="" style="shape=flexArrow;endArrow=classic;startArrow=classic;html=1;rounded=0;strokeColor=#82b366;fontColor=#393C56;fillColor=#d5e8d4;" parent="1" edge="1">
          <mxGeometry width="100" height="100" relative="1" as="geometry">
            <mxPoint x="418.9982352941176" y="310" as="sourcePoint" />
            <mxPoint x="419.41" y="170" as="targetPoint" />
          </mxGeometry>
        </mxCell>
        <mxCell id="io0zbL7cQPA-m2ZbIYGQ-8" value="" style="shape=flexArrow;endArrow=classic;startArrow=classic;html=1;rounded=0;strokeColor=#82b366;fontColor=#393C56;fillColor=#d5e8d4;entryX=0.053;entryY=1.067;entryDx=0;entryDy=0;entryPerimeter=0;" parent="1" edge="1">
          <mxGeometry width="100" height="100" relative="1" as="geometry">
            <mxPoint x="-60" y="495.98" as="sourcePoint" />
            <mxPoint x="-59.72000000000003" y="370" as="targetPoint" />
          </mxGeometry>
        </mxCell>
        <mxCell id="io0zbL7cQPA-m2ZbIYGQ-9" value="" style="shape=flexArrow;endArrow=classic;startArrow=classic;html=1;rounded=0;strokeColor=#82b366;fontColor=#393C56;fillColor=#d5e8d4;entryX=0.053;entryY=1.067;entryDx=0;entryDy=0;entryPerimeter=0;" parent="1" edge="1">
          <mxGeometry width="100" height="100" relative="1" as="geometry">
            <mxPoint x="100" y="496" as="sourcePoint" />
            <mxPoint x="100" y="370" as="targetPoint" />
          </mxGeometry>
        </mxCell>
        <mxCell id="io0zbL7cQPA-m2ZbIYGQ-10" value="" style="shape=flexArrow;endArrow=classic;startArrow=classic;html=1;rounded=0;strokeColor=#82b366;fontColor=#393C56;fillColor=#d5e8d4;entryX=0.053;entryY=1.067;entryDx=0;entryDy=0;entryPerimeter=0;" parent="1" edge="1">
          <mxGeometry width="100" height="100" relative="1" as="geometry">
            <mxPoint x="261" y="496" as="sourcePoint" />
            <mxPoint x="261" y="370" as="targetPoint" />
          </mxGeometry>
        </mxCell>
        <mxCell id="io0zbL7cQPA-m2ZbIYGQ-11" value="" style="shape=flexArrow;endArrow=classic;startArrow=classic;html=1;rounded=0;strokeColor=#82b366;fontColor=#393C56;fillColor=#d5e8d4;entryX=0.053;entryY=1.067;entryDx=0;entryDy=0;entryPerimeter=0;" parent="1" edge="1">
          <mxGeometry width="100" height="100" relative="1" as="geometry">
            <mxPoint x="419.5" y="496" as="sourcePoint" />
            <mxPoint x="419.5" y="370" as="targetPoint" />
          </mxGeometry>
        </mxCell>
        <mxCell id="io0zbL7cQPA-m2ZbIYGQ-12" value="" style="shape=flexArrow;endArrow=classic;startArrow=classic;html=1;rounded=0;strokeColor=#82b366;fontColor=#393C56;fillColor=#d5e8d4;entryX=0.053;entryY=1.067;entryDx=0;entryDy=0;entryPerimeter=0;" parent="1" edge="1">
          <mxGeometry width="100" height="100" relative="1" as="geometry">
            <mxPoint x="580" y="496" as="sourcePoint" />
            <mxPoint x="580" y="370" as="targetPoint" />
          </mxGeometry>
        </mxCell>
        <mxCell id="io0zbL7cQPA-m2ZbIYGQ-13" value="" style="shape=flexArrow;endArrow=classic;startArrow=classic;html=1;rounded=0;strokeColor=#82b366;fontColor=#393C56;fillColor=#d5e8d4;entryX=0.053;entryY=1.067;entryDx=0;entryDy=0;entryPerimeter=0;" parent="1" edge="1">
          <mxGeometry width="100" height="100" relative="1" as="geometry">
            <mxPoint x="740" y="496" as="sourcePoint" />
            <mxPoint x="740" y="370" as="targetPoint" />
          </mxGeometry>
        </mxCell>
        <mxCell id="io0zbL7cQPA-m2ZbIYGQ-14" value="" style="shape=flexArrow;endArrow=classic;startArrow=classic;html=1;rounded=0;strokeColor=#82b366;fontColor=#393C56;fillColor=#d5e8d4;entryX=0.053;entryY=1.067;entryDx=0;entryDy=0;entryPerimeter=0;" parent="1" edge="1">
          <mxGeometry width="100" height="100" relative="1" as="geometry">
            <mxPoint x="903" y="496" as="sourcePoint" />
            <mxPoint x="903" y="370" as="targetPoint" />
          </mxGeometry>
        </mxCell>
        <mxCell id="io0zbL7cQPA-m2ZbIYGQ-16" value="User Service" style="rounded=0;whiteSpace=wrap;html=1;strokeColor=#996185;fillColor=#e6d0de;fontSize=16;horizontal=1;verticalAlign=top;gradientColor=#d5739d;" parent="1" vertex="1">
          <mxGeometry x="-110" y="500" width="100" height="230" as="geometry" />
        </mxCell>
        <mxCell id="io0zbL7cQPA-m2ZbIYGQ-17" value="PostgreSQL" style="shape=cylinder3;whiteSpace=wrap;html=1;boundedLbl=1;backgroundOutline=1;size=15;" parent="1" vertex="1">
          <mxGeometry x="-100" y="630" width="80" height="80" as="geometry" />
        </mxCell>
        <mxCell id="io0zbL7cQPA-m2ZbIYGQ-18" value="Contract Service" style="rounded=0;whiteSpace=wrap;html=1;strokeColor=#996185;fillColor=#e6d0de;fontSize=16;horizontal=1;verticalAlign=top;gradientColor=#d5739d;" parent="1" vertex="1">
          <mxGeometry x="370" y="500" width="100" height="230" as="geometry" />
        </mxCell>
        <mxCell id="io0zbL7cQPA-m2ZbIYGQ-19" value="Transaction Service" style="rounded=0;whiteSpace=wrap;html=1;strokeColor=#996185;fillColor=#e6d0de;fontSize=16;horizontal=1;verticalAlign=top;gradientColor=#d5739d;" parent="1" vertex="1">
          <mxGeometry x="210" y="500" width="100" height="230" as="geometry" />
        </mxCell>
        <mxCell id="io0zbL7cQPA-m2ZbIYGQ-20" value="Chat Service" style="rounded=0;whiteSpace=wrap;html=1;strokeColor=#996185;fillColor=#e6d0de;fontSize=16;horizontal=1;verticalAlign=top;gradientColor=#d5739d;" parent="1" vertex="1">
          <mxGeometry x="690" y="500" width="100" height="230" as="geometry" />
        </mxCell>
        <mxCell id="io0zbL7cQPA-m2ZbIYGQ-21" value="Property Service" style="rounded=0;whiteSpace=wrap;html=1;strokeColor=#996185;fillColor=#e6d0de;fontSize=16;horizontal=1;verticalAlign=top;gradientColor=#d5739d;" parent="1" vertex="1">
          <mxGeometry x="850" y="500" width="100" height="230" as="geometry" />
        </mxCell>
        <mxCell id="io0zbL7cQPA-m2ZbIYGQ-22" value="Notification Service" style="rounded=0;whiteSpace=wrap;html=1;strokeColor=#996185;fillColor=#e6d0de;fontSize=16;horizontal=1;verticalAlign=top;gradientColor=#d5739d;" parent="1" vertex="1">
          <mxGeometry x="530" y="500" width="100" height="230" as="geometry" />
        </mxCell>
        <mxCell id="io0zbL7cQPA-m2ZbIYGQ-23" value="Review Service" style="rounded=0;whiteSpace=wrap;html=1;strokeColor=#996185;fillColor=#e6d0de;fontSize=16;horizontal=1;verticalAlign=top;gradientColor=#d5739d;" parent="1" vertex="1">
          <mxGeometry x="50" y="500" width="100" height="230" as="geometry" />
        </mxCell>
        <mxCell id="io0zbL7cQPA-m2ZbIYGQ-30" value="PostgreSQL" style="shape=cylinder3;whiteSpace=wrap;html=1;boundedLbl=1;backgroundOutline=1;size=15;" parent="1" vertex="1">
          <mxGeometry x="380" y="630" width="80" height="80" as="geometry" />
        </mxCell>
        <mxCell id="io0zbL7cQPA-m2ZbIYGQ-31" value="PostgreSQL" style="shape=cylinder3;whiteSpace=wrap;html=1;boundedLbl=1;backgroundOutline=1;size=15;" parent="1" vertex="1">
          <mxGeometry x="220" y="630" width="80" height="80" as="geometry" />
        </mxCell>
        <mxCell id="io0zbL7cQPA-m2ZbIYGQ-32" value="Qdrant" style="shape=cylinder3;whiteSpace=wrap;html=1;boundedLbl=1;backgroundOutline=1;size=15;" parent="1" vertex="1">
          <mxGeometry x="700" y="630" width="80" height="80" as="geometry" />
        </mxCell>
        <mxCell id="io0zbL7cQPA-m2ZbIYGQ-33" value="MongoDB" style="shape=cylinder3;whiteSpace=wrap;html=1;boundedLbl=1;backgroundOutline=1;size=15;" parent="1" vertex="1">
          <mxGeometry x="860" y="630" width="80" height="80" as="geometry" />
        </mxCell>
        <mxCell id="io0zbL7cQPA-m2ZbIYGQ-34" value="MongoDB" style="shape=cylinder3;whiteSpace=wrap;html=1;boundedLbl=1;backgroundOutline=1;size=15;" parent="1" vertex="1">
          <mxGeometry x="540" y="630" width="80" height="80" as="geometry" />
        </mxCell>
        <mxCell id="io0zbL7cQPA-m2ZbIYGQ-35" value="MongoDB" style="shape=cylinder3;whiteSpace=wrap;html=1;boundedLbl=1;backgroundOutline=1;size=15;" parent="1" vertex="1">
          <mxGeometry x="60" y="630" width="80" height="80" as="geometry" />
        </mxCell>
        <mxCell id="io0zbL7cQPA-m2ZbIYGQ-36" value="gRPC Client" style="rounded=1;whiteSpace=wrap;html=1;strokeColor=#56517e;fillColor=#d0cee2;fontSize=16;" parent="1" vertex="1">
          <mxGeometry x="-460" y="650" width="70" height="40" as="geometry" />
        </mxCell>
        <mxCell id="io0zbL7cQPA-m2ZbIYGQ-37" value="gRPC Server" style="rounded=1;whiteSpace=wrap;html=1;strokeColor=#10739e;fillColor=#b1ddf0;fontSize=16;" parent="1" vertex="1">
          <mxGeometry x="-360" y="650" width="70" height="40" as="geometry" />
        </mxCell>
        <mxCell id="io0zbL7cQPA-m2ZbIYGQ-38" value="" style="endArrow=classic;html=1;rounded=0;strokeColor=#E07A5F;fontColor=#393C56;fillColor=#F2CC8F;entryX=0;entryY=0.5;entryDx=0;entryDy=0;exitX=1;exitY=0.5;exitDx=0;exitDy=0;strokeWidth=3;" parent="1" source="io0zbL7cQPA-m2ZbIYGQ-36" target="io0zbL7cQPA-m2ZbIYGQ-37" edge="1">
          <mxGeometry width="50" height="50" relative="1" as="geometry">
            <mxPoint x="-470" y="570" as="sourcePoint" />
            <mxPoint x="-420" y="520" as="targetPoint" />
          </mxGeometry>
        </mxCell>
        <mxCell id="io0zbL7cQPA-m2ZbIYGQ-39" value="gRPC Service" style="rounded=1;whiteSpace=wrap;html=1;strokeColor=#10739e;fillColor=#b1ddf0;fontSize=16;" parent="1" vertex="1">
          <mxGeometry x="40" y="720" width="70" height="40" as="geometry" />
        </mxCell>
        <mxCell id="io0zbL7cQPA-m2ZbIYGQ-40" value="gRPC Client" style="rounded=1;whiteSpace=wrap;html=1;strokeColor=#56517e;fillColor=#d0cee2;fontSize=16;" parent="1" vertex="1">
          <mxGeometry x="-50" y="720" width="70" height="40" as="geometry" />
        </mxCell>
        <mxCell id="io0zbL7cQPA-m2ZbIYGQ-42" value="" style="endArrow=classic;html=1;rounded=0;strokeColor=#E07A5F;fontColor=#393C56;fillColor=#F2CC8F;entryX=0.5;entryY=1;entryDx=0;entryDy=0;exitX=0.5;exitY=1;exitDx=0;exitDy=0;strokeWidth=3;" parent="1" source="io0zbL7cQPA-m2ZbIYGQ-40" target="io0zbL7cQPA-m2ZbIYGQ-39" edge="1">
          <mxGeometry width="50" height="50" relative="1" as="geometry">
            <mxPoint x="-37.5" y="760" as="sourcePoint" />
            <mxPoint x="877.5" y="760" as="targetPoint" />
            <Array as="points">
              <mxPoint x="-15" y="780" />
              <mxPoint x="75" y="780" />
            </Array>
          </mxGeometry>
        </mxCell>
        <mxCell id="K2tW0F9EPkzHcLvSDQwU-1" value="" style="shape=image;verticalLabelPosition=bottom;labelBackgroundColor=default;verticalAlign=top;aspect=fixed;imageAspect=0;image=data:image/png,iVBORw0KGgoAAAANSUhEUgAAA5wAAAJ+BAMAAAAtZxLfAAAAIVBMVEWkHhG8JBmDEASmHhHAJhnZLCDnfnfYLCCkHhH1zMr//v4/FPwKAAAABnRSTlPdAP4m+Yi8YgJAAAATyElEQVR42u3dz27byhXHcRVJ4GwF476A0cVdRnCNbouUF+LSgWPkPoEEZ+UFI13vvOBF+AQ2rAdwYT1lFTu2/pGcOTOH9Mzk+1u1RSMb/ogzZ4bknMGQJJQBfwI4CZwETgInnAROAieBk8AJJ4GTwEngJHDCSeAkcBI4CZxwEjgJnAROAiecBE4CJ4GTwAkngZPASeAkcMJJ4CRwEjjhJHASOAmcBE44CZwETgIngRNOAieBk8BJ4ISTwEngJHASOOEkcBI4CZwETjgJnAROAieBE04CJ4GTwEnghJPASeAkcMJJ4CRwEjgJnHASOAmcBE4CJ5wETgIngZPACSeBk8BJ4CRwwkngJHASOAmccBI4CZwETgInnAROAieBE04CJ4GTwEnghJPASeAkcBI44SRwEjgJnAROOAmcBE4CJ4ETTgIngZPASeCEk8BJ4CRwEjjhJHASOAmcBE44CZwETs0cHh/DmUhOzs8Hg8G787MRnNFflyen8+f853wEZ9yYn+ebuUz5Ck2e8/h8vpt3x3BGemmeH8z3c5nsiJs25/HpvD7vRnDGV88ezJtyeQZnIpfmY4okB9x0OU++zNuTYkWUKufhyXhuyrczOGOpaOcWuTyHM4mBNtUKN0VOm4E20QE3Qc72inZ/xTKCM4WB9jkprViS4zw/mEuT0IolMU67ijbdCTQtzuPPc6cUqUygSXGeHMxdk8iKJSFOt4H2xfMMznjXJ4neY0mGs259cjURTaAJrFgS4azfCJo93PxiE2ganIcNA+1ieTOt+99nk0RXLElwNm4EfV0uH2o8J4v7RLf8UuBsXp9cLVeeu1fi7GK5vE10yy9+zrb1yWz5Izc7l+bqf5omOoFGz3nYuj5ZPHreTbcuzfoROIkJNHZOw0bQ10fONd/kyfc+1S2/uDkPTwxLj6vlz0zWl6aRM+IJNGpO87bebPHsuVqxTF7+y63p3/1xBmfvA63F/ZMXweXdxct/bKuE4t7yi5jT6v7J1bImD8lu+UXLaXn/ZFbHeZ/sll+snNb3TxbOnDGuWCLltH++62sN5631PbMRnH0MtPYP0tZNnlPrfx3bBBoj56HgRvVs4VYJRTqBRsgpeZB24jF1xrhiiY7zUPB81+xiufTljGvLLzZOyfNdk7tazf1bZulMoJFxSqbNi8WyKTdTkWc8W35xcQqmzdndsiV3Ms9oVqBRcQpe9Jsslq0RDrixbPkNEh1ol8bIHvKL5L2kQZID7WJpkYcEB9xoOAXrkwsrTfGAG8OWXySckm299iLIZ8ANfwKNg/NQ9v7JbDKZ3FldosIKN/gtvyg4xe/HP6PemVAfEluxRMApOYikZsUyuahHfbi7u5lMpR8X+JZf+Jx+r23+NN0dY1eScsoIJtDgOU9O5wpZbFyU7pLhv9gbOqfH+/G1zyTcT/0/LOB7ZmFzGh+LFj+TcKvyccEOuEFzHp7OtbIQPFdSVP80FV+hbvmFzOm2Pml/WcXi/5pV1dHv4zhXLAFzKk2bW6Ot+UGEIq+q/OjoqDQenjqCs9/1yf7j0/+z0VxdnRaeQU6goXIqTpubk+etcdqsnjmPfo/wIYVBpAPt7Mdmz/PuzmRiO9pOjdNmvsrHoyfPsXHFMoLTf1tvRbm3Y2cinZkroaeB9uXqjHHADZGzfdqcNTygtxI1jrb3Bs2fnvkz51EV2RZRgJy/fXZ52vJxK3ZiWKrctA60ZbV7dR7FtmIJj7N12jTdmm554vKqferMqo0cCTyLczgdB9rJwuMBoEUL53ra/JGPR5sxTqAB3dQOjLN9fXLh9QDQ1+ZKaFtz6+q0mkBHcNYOtJ99NVs8rxoroWwbc6MUshxwg/EMirN9tXlh+TxX03g7W9zaae5enSvP7wbPMziF23qzxdLTczG1GWjrOM0T6Bmcsm09a83G9ciVrebHfU7TBPptBKdE82IpSP3lObMaaOuvTuME+glOyZb7QsJp/UJuvWZ+VOvZOuD+MYJzowpyOe5JennaDLSNV6dhAr38BOd6Y8+0FPgq47z10mzibL1nBuc6xsdIFjLOe+eBtqkUMk6gcK4vTsuHCaxj8UxQ46XZcnW2cBZwvuTf2pzGybNo08wdBtscTvux9kqbM6sq+dXZVgpVcNpzql+d7Z71l2bbTt9fcHbJ6VPX1pdC7dsIFZwSzoV6KTQvMsnVWZnqKjhfYn5AuoOFSvOAm0u34H88zwnnS95qnCzjcGJtlttdnYYbZI/jNpwveT/XnTytjzhtmECFt68fPwTONed34x9etMsnOJEkM5dCpdWGBJxrzmqseXmKDoDKTFdnafcBcG5wlpqzp+yd3P0BNxc9mFnBucdZZXrFrfDwpxpPgebLxQ3nJqfFcGvpeSM//iBr4izt/yWcW5xank6HWWT1pVAm+HdwbnNaeH7VH2lfBtyNVJYD7da3AM4dTrOn8TDMB0fN7Qk0t3tdd/uWKZy7nKXZc6J5JnjjpWY1be7cAIdzl9Pm+pw1g95N5l7JNjh/L6X1MJz7nBaeDaAPN56YGxPoR4tpc291A2cNp8X680l0axK9U7DcNPqnWXNvJwnOOk47z/nTGcQXP465mOhQrgfc0vwr7GvCWc9psd/nn+ZDM7M8G7towtnAaVPgelquhurmF7Edb3vD2cDZqedqgF4spW3lbB5igLOJszPPdQV16/4hDU8wwNnIabVgEWa7Gp5qa8LZxmld4FpPlx4tPK0e54SzjVOvwJ39nC7db3BbPZwLZyunzgS6GmLvvNuPtS5Q4LTj9Pest3Qfa1tfhIDTwOlXELXs1TuOte2vKcFp5HQtiGb7R6T6j7V5Bacnp4unwdJxrC0MmnDacEon0EnTdOk51ho14bTilHjWrEiUxtqiquBU4bQviK4Wmq+X2RdBcIo4rSfQyaKDh+QtNeG05rS/pd3JWJvbaF7Dac1pPYHa9L2+1y6CHhPGkbaRcNp7XnT+QlJ93sAp4LQviC60XuW1LWkDGmsj4tQqiO670Kz+HsIp41QqiKbaJW04dW1cnNa3QNsKoodONEM52z8Mzj8t/2oKBdG98gIlpJkzFM4P1n8474Joql3SPpa1Qzg38pv9X86zIHroQpO2ONs5/FPfs74gutcuaYPSDOW06RPBX89rh2iqXQStJs5wNEPhPDztwvPCdawVaYbU8TGYxhvvBX9B94LoXrmkDUwznLY4JyJP14JoqlwEBaYZUNOqD514bhdED9qa1R/HcPpPn4IdogvZKTVFJRv1aZas5OlQEE1Vi6CnX+GSZskqnvKC6EFX8/kXYN2p4yktiG40S9qN4YFdofocv+3G82dBNFXV3PiHNEuuXawcCEc7WUH0oFnSbv9kmiXvD7XnY3FlKSqIbhVL2t1x4ROcu5ouf1b7gmjSPtb6ac6/wblTBrkNeoKCSK+krfmRn+Cs1ZSWJCrHKGTeA8J/R3BuVEHuJabCMQq5//BOs+SN/Hbgc7V4vnZf5Bo/C851PvuNfl6v3fssUOCsvTh9K02PCbTQGdf/gvMl//K+aJwn0ELpS0Oz5HW+KBQobp6F1pDO+50mzh4KokxLk2bJZs7OC6JM7dvC29cWnJ3t+HndD6v/JDhfcqC0ipAVuLnazEyz5K28VduxERREud7XhKMutvJer1yxLYgKRc0czm3O7317yjTHFpc5nGvOSnFxaOMp0jR8Hs2S9zlLxWvJXOBqatIsuYbTJKBa4Mo0LbeV4Nzk7NGzE004tzlNnmrP+Ik0M+tfCs5tTlMFU+h4ijQFXzE4tznNnrlCgVtU3WjCuctpXmH4e2aKC56cA1BbObU996+u7jTh3Oc0rxiFBdF2L85Ms6TNKziNnMZbItKCKHPDNP0e+/M4nHWcZk/hgFtlq08sisxzmDZ+qeCs5TTfspR6OsRhzQRnPaf5lmXXnqXLjgacDZzmAjcLTxPORk6zZ9GlptvYAGcjp/ItLtWnjZp+MJwtnK9WEGWuXyM42zhfqSByvw0AZyun2TPrvQiiWbI7Z/8FUelzyxVOA6eFZ95nSUuzZD/ODnb89BcocNpz9ljgZp4/CE4Lzt4Kosx3GIDThrOngsj/OSU4rTj7KIhKhacI4bTj7H7HT0MTTmvOjguiUuPDaZZsz9lpQaSiSbNkCWeHBVGmM5DTLFnC2VlBlCl9S4IYa1NqluzkqfUiBc2SpZxdFERqrzmdwSnl1C+I1DT/HsG5jlqz5EJzuWl/sdMseSsfKjXPXEuTZsnOUWyWbK1Q6hVWtMXZjmqz5FxFUzBoB9ReN8ZmyRqempqfhnDuXJ6qzZIzX02aJfvOnu81PQs/zTxWzVSbJRd9aVbZ+QhOn8WKd4GrecLYOKj2nek2S25WKbUPhw+oX3K6zZKbPNU1Q/KMuFmy2zEnWRdH/X8bwVnDKbwlkskXLGO9Imjz6xSKZ1CDrfycGaGnZkm7PThwg2xX84vqQYp1E6jisai7P/lyBOe+pv7J0i9IZTbvTjOUy3MQmGYHJ4UX2Y/oPjq2/9UIY/YMhfO0n9YpSiVtzY+kHevmFl9frXC660UGZ81Q23ErHJVnxurPyYVzfT/Ft7XRuD/Nhp9FO9Z1vvTQOqWrkvb5KwFnC2ePzZJVNAveIGvl7KsgUmqWnMPZzhlis+Ss5WPgNHD2UBBptb7O4dzIgVIrnNdqlpzx9vVm3mq9tTl+Fc2Cl+m38n6s9ZbfazRLfvod4VxzKnUME3lqadKOdY+zbZTsqMDNtb4kOSeX7HG2VTGdFES51pSccxDNPmfrRdXBjl+u9Xl5BWcNZ/Vd8diD/pol5xWctZx6DXHNBVGuNRfnFZwNnO3XlKZnF5pw7nK2e4bXLHn7g+Dc5Wy/pl6jWbJgAoBzj9PgmSt4qrW+3v12wbnP2T5VKTS/Vmt9vfdBcNZwGjZ1fBcsaguU/ZkczjpOg6fXSyyFWklb82vAWctp2NRxb5YsG6oz6ZcKznpOw4JFuqNQZlmxiqzztcO6Fc4mTl1PlzjsaMDZyGnYpMtfU7Pp2wRnM6duQSRMOXaZu+Fs4VQ9kULx/nfzFwnONk5TgdvZgJs5DgtwtnK+UkHkfCsGTgOn5jEjHZa0cFpyqh4C1FlJC6ctZ88FkVtJC6c1Z68FkZcmnDacPXqWfgM7nDacve0QeWrCacnZT0Hk/awYnJacfRREY+8RHU5bzu4nUH9N2rHac3bs6VfSPoV2rALOTgsiDc3qH0M4BZzdFUSlxucG0ukoooaPHRVEpcpV/24Ip4yzmwlU50WnUBpXxdWOVd9T6bW1UDo+xtWOVb0gGutoBtMjMLJ2rMoF0VhnMr6mj8pWBA3lOuhq4/3NCKa5biinTZ8qrRIlnqWWZkBNyALhlPR7VCqISq1ZmJZyPrOnUkFUatXIIWmG03jjz3491TSvj4dw1ni+l3j6PiSvdopRUNdmSE2rZO11S69jMUqtxc4gLM2QWsppehb9aAZ2bYbV8FHm6f6QfKm1sRScZlCcUk/HY04S1gyLU+rpdMxJqbWJH6BmYJzDk4HecwTiZsmikvb6TYCaoXF27qmmeTYcwmmx/pT1M5e9jql2CHKgmuFx6nraN0tOQjNAzpWnYkG0Aap2Jmo1OB7CKdiPf684gdo0S46/pA2ZU7xg8WvfmY5moJzSAtevX3I6mqFyDo9Pe/MULlBC1gyWU1zglmiGzCkvcN0mUNn9sLPhEM6ACyLZAmU0hLM3T4cJNJ0iKALO4UnHBVFqmoFzigvcsrMFSph3UCLjVN7x89A8i0EzeM7hYVcFUQr3w+LjlBdEY33NQSSaMXB2UhDJHqY9HsIZ8o5fkVpJGxOnekEk0nwTj2YknMPDD5qeRYJFUFScqjt+6WrGwyktiJo9E9aMiFNcEI39NeMpaePjFN8CHXu/JR+bZlSc4oJo7LXpfh3RAiVKTu+XWAqR5nAIZ8AFUZElXATFySnfIRq7YEaqGR+nuCBaif6I7J8Mjodw9hRhQeSQCIugeDnFt8x+Gc04OcW3zES5jlczUk5xQZTeYyRJcToURGmXtJFzineIojyT7dfhlL9llvICJQHODjwjLoLi51QviKLXjJtTtyCKuqRNglOzIEpBM3ZOvR2iuBcoyXAqFUSDJDQT4FQpiOIvgpLhVCiIUtFMgtO7IEpGMw1Ovwn0+k0ymqlwenimUdImxuk8gSalmQ6no2damglxOhVEkd8PS5nTYYfoXWKaaXFKC6J0Fihpcsp2iNLTTI1TUhAlqJkcp73nmwQ10+O0LIiuk9RMkdPG8/rNcAhnKgVuYpsHiXOaCtxkNRPlbPdM4qmgX4qzrcBNWDNZzuZz39IdaVPmbPJMWjNhzvqDjdPWTJmzbgGa3C2UX4lzt8BNuQj6FThXA+7g5QodpH5pps+5Aj0fPOX8bDiEM4Uh9+T87Hg0HMJJ4CRwEjgJnHASOAmcBE4CJ5wETgIngZPACSeBk8BJ4ISTwEngJHASOOEkcBI4CZwETjgJnAROAieBE04CJ4GTwEnghJPASeAkcBI44SRwEjgJnAROOAmcBE4CJ5wETgIngZPACSeBk8BJ4CRwwkngJHASOAmccBI4CZwETgInnAROAieBk8AJJ4GTwEngJHDCSeAkcBI4CZxwEjgJnAROOAmcBE4CJ4ETTgIngZPASeCEk8BJ4CRwEjjhJHASOAmcBE44CZwETgIngRNOAieBk8BJ4ISTwEngJHDCyZ8ATgIngZPACSeBk8BJ4CRwwkngJHASOAmccBI4CZwETgInnAROAieBk+zl/zTRHvAzDbk1AAAAAElFTkSuQmCC;" parent="1" vertex="1">
          <mxGeometry x="342.38" y="878.39" width="155.25" height="107.2" as="geometry" />
        </mxCell>
        <mxCell id="K2tW0F9EPkzHcLvSDQwU-5" value="" style="shape=image;verticalLabelPosition=bottom;labelBackgroundColor=default;verticalAlign=top;aspect=fixed;imageAspect=0;image=data:image/png,iVBORw0KGgoAAAANSUhEUgAADV4AAAb1CAMAAABGk8pMAAACf1BMVEX///8+vrDwvxoHpd4jHyA+vrDXoinwvxo+vrDwvxoVYHzjsCIBm48Hpd4jHyA+vrDwvxo+vrApsqTfqyQHpd4jHyA+vrDwvxrwvxoWXnnjsCIutafcqCYBm48Hpd4jHyA+vrDwvxrgrCQxt6kHpd4jHyA+vrDwvxoWW3XiryIosaQHpd4jHyA+vrDwvxrgrCQrs6YXWXMHpd4XWHEjHyA+vrDiriPwvxokr6LeqiUttKfgrCQnsaPdqSUHpd4jHyA+vrDwvxoYVm0hrqDeqyUpsqUHpd4jHyA+vrDwvxrgrCQkr6IYUmnhrSPeqiUHpd4jHyAmsKM+vrDwvxrfqyQhraAZT2UHpd4WXHYdq54jHyA+vrDeqiXiryLwvxojrqHfqyQerJ8Hpd4aTF8jHyA+vrDfrCTwvxobqp3dqSUgraDcpybeqiUcq54irqEaSFoHpd4jHyA+vrDdqSbwvxoeq5/dqSUaqZwbRFQfrJ/eqiXcqCYHpd4bqp0jHyA+vrDwvxo+vrDcqCYXqJscP00UppnbpyYZqZzcpyYVppoeOUXcqCYHpd4jHyA+vrDapifwvxoWp5rbpicSpZgfMz3bpicPo5bZpSjapScPo5cgLTTapScMoZXYoygIn5PYoyghJirYpCgBm48FnZEHpd4In5MJndILlMYMjLoMoZUOg64Qe6IQpJcSc5YTaosUppkVYn8XWXMYqJsZUWcaSVscQE8cqp0eOEMfrJ8gLzchJysjHyAjr6InsaQrs6Yvtagzt6o2uqw6vK4+vrDXoinYpCjapifcpybdqSXfqyTgrSPiryLjsCLlsiHntCDoth/quB7ruh3tuxzuvRvwvxp6yEdbAAAAonRSTlMABgkQEBAQEBgYHx8gICAgICguLjAwMDA4PDw9PUBAQEBASkxQUFBQV1dYYGBgYGRmanBwcHBwcHFxdHx+foCAgICHiIiLkJCQkJKUnJydoKCgoKCmqK+wsLCwsLCwsLO4usDAwMDAwMHBxMTIys7P0NDQ0NDT1tjc3Nzd4ODg4ODi4uTn6Ojr6+3v7/Dw8PDw8/P19vb39/n7+/v8/P39/v5PNmvIAAAgAElEQVR4nOzd/5NfVZ3ncXapJruyVLJAJcvgUt1IJSqV4EJl46wM1e0glbjOpOxG2K24UaF6e3WYJRXb0Z2JlayyM+CkenocdUbXUZkQ5dsICii4+HUaBEUQnT9o092BJE2S/nbvfZ3PPY/Hr0AVyef9y7POPe9zwQUAAAAAAAAAAAAAAAAAAAAAAAAAAAAAAAAAAAAAAAAAAAAAAAAAAAAAAAAAAAAAAAAAAAAAAAAAAAAAAAAAAAAAAAAAAAAAAAAAAAAAAAAAAAAAAAAAAAAAAAAAAAAAAAAAAAAAAAAAAAAAAAAAAAAAAAAAAAAAAAAAAAAAAAAAAAAAAAAAAAAAAAAAAAAAAAAAAAAAAAAAAAAAAAAAAAAAAAAAAAAAAAAAAAAAAAAAAAAAAAAAAAAAAAAAAAAAAAAAAAAAAAAAAAAAAAAAAAAAAAAAAAAAAAAAAAAAAAAAAAAAAAAAAAAAAAAAAAAAAAAAAAAAAAAAAAAAAAAAAAAAAAAAAAAAAAAAAAAAAAAAAAAAAAAAAAAAAAAAAAAAAAAAAAAAAAAAAAAAAAAAAAAAAAAAAAAAAAAAAAAAAAAAAAAAAAAAAAAAAAAAAAAAAAAAAAAAAAAAAAAAAAAAAAAAAAAAAAAAAAAAAAAAAAAAAAAAAAAAAAAAAAAAAAAAAAAAAAAAAAAAAAAAAAAAAAAAAAAAAAAAAAAAAAAAAAAAAAAAAAAAAAAAAAAAAAAAAAAAAAAAAAAAAAAAAAAAAAAAAAAAAAAAAAAAAAAAAAAAAAAAAAAAAAAAAAAAAAAAAAAAAAAAAAAAAAAAAAAAAAAAAAAAAAAAAAAAAAAAAAAAAAAAAAAAAAAAAAAAAAAAAAAAAAAAAAAAAAAAAAAAAAAAAAAAAAAAAAAAAAAAAAAAAAAAAAAAAAAAAAAAAAAAAAAAAAAAAAAAAAAAAAAAAAAAAAAAAAAAAAAAAAAAAAAAAAAAAAAAAAAAAAAAAAAAAAAAAAAAAAAAAAAAAAAAAAAAAAAAAAAAAAAAAAAAAAAAAAAAAAAAAAAAAAAAAAAAAAAAAAAAAAAAAAAAAAAAAAAAAAAAAAAAAAAAAAAAAAAAAAAAAAAAAAAAAAAAAAAAAAAAAAAAAAAAAAAAAAAAAAAAAAAAAAAAAAAAAAAAAAAAAAAAAAAAAAAAAAAAAAAAAAAAAAAAAAAAAAAAAAAAAAAAAAAA0H8bNi36dyNLnfwH/zr9fwgAAFCkTSMj28bGxvZPTU0d+ecVmz3xr0+d+M92jIxsSf8JAAAAgraM7Bgbm5qaXnlQnc+Rqak9Y7tGRtJ/KgAAgM6MjMxXVTNRdTbTJzpr28iG9B8TAACgNSM7xvZPzbbXVUtMTY3tUFkAAECvbBjZtafDrlpSWRNjI5vSfwMAAADrlQyr081HlpMsAABgIG0YGdu/ij2AXTgyNbbNQRYAADBACiyrU2Y1FgAAMBC27JiYThfU8o7s32WFOwAAUK6RsSLuWa3U1J5trmMBAACl2bBtz3Q6l9ZiemKHLwUBAIBSDGpaveaIxAIAAAowMjaVzqMmTPtQEAAACNq0a/8g3bVaztTYlvTfKAAAUKNte4rdvb52sxM7HGIBAAAd2rRjfzqE2jO1yyEWAADQiS27ptMF1LYje7yKBQAAtGxLHz8JPJvZiW3pv2sAAKC/tk1U0laLXMQCAABasW2iT1sCV2q/wgIAABq1ZU+NbbXAV4IAAEBjqrlvdS4KCwAAaMCm/u8JXIkje2xrBwAA1qPP71ut1vQu17AAAIC12VLlMovz2e8jQQAAYNU27Kr8wtXZze7ZlP5lAACAgbJtIt0x5Zrakf51AACAQeHgahmOsAAAgJUYcXC1Ao6wAACA89uww8HVCh0Zc4QFAACcy6Y9VgWuxsRI+hcDAACKNOKNq1Wb9o0gAACwlK8C1+bImMeGAQCAUzaMias1m51wCQsAAFi0acKVq/VxCQsAALhgPq7ScdIHUwILAABqNzKVDpO+sOUCAACqJq6adERgAQBArcRV0wQWAABUaZu4aoHAAgCA6oxMp0OkrwQWAABUxWeBbRJYAABQDXHVNoEFAABVEFddEFgAANB7m/anw6MWHhoGAIBe2zSRjo6aCCwAAOitDWOz6eKozMSm9G8OAAC0YZe46t7YhvTPDgAANG3bkXRp1Gl2V/qXBwAAGrXFusCYI9vSvz4AANCYDTZaRE1tSU8AAADQiIv+m0tXaXtcwQIAgB64+etzL/w2nRfVcwULAAAG3tX3zp3w/KvpvGDaK1gAADDILrpr7qRfpeuCf57whSAAAAysm78+97pf+EAwzheCAAAwoH7n3rnT/dwHgnnTdggCAMDguejDc0s890o6LrBDEAAABs91f7e0rk54Kd0WeGUYAAAGzMV/cpa4OuFFF7AKsH9Tej4AAICVetfXz15XLmCVwYoLAAAYEJd95lxxNX8B69fptuCEKQdYAAAwAP7w/vPU1ZwXsMowO5aeEwAAYBmX3Xv+uDrhF+m0YJ4d7QAAULbljq4WL2BZcFEEB1gAAFCuFRxdLXjegosiOMACAIBSvWslR1cLvDBcBisEAQCgSBf/2Urjat7L6bJggRWCAABQnnO/dXV2FlyUYXZHenIAAIAzXHTX6uLqhBctuCjD/g3p6QEAAE65+ourrisLBIsxO5KeHwAA4DW3riGu5iwQLMee9AQBAAALLl7hOvY3ek5fFWLahgsAACjA765yp8UZLBAshA0XAACQt/qdFvqqSBM2XAAAQNRln19fXc3N/TKdFZw0vSU9TQAAULN33b/euvIAVkF8IAgAADHr/DDwtb6yoL0UPhAEAICM9X8YeJIHsIrhA0EAAEi4bj0bA/VVoWwQBACA7n2wsbia76vfpLOC10ykJwsAACpz8WearCsPDJdk2gUsAADo0NV/12xd6auSzI6k5wsAAOpxcwP72PVVwXalJwwAAGrx0ebjSl+VxYZ2AADowsV/3kpdneirV9JRwetcwAIAgPa9+Yst1dUJL6ejgtfNegELAABa9rstXLvSV0XyAhYAALTq1jbjSl+VZU962gAAoM/+pOW60ldF2e8CFgAAtKS1pRb6qlDTm9IzBwAA/dTmUgt9VSYLLgAAoA1va3Wphb4q06wFFwAA0LibO4orfVWYXenJAwCAvml7ZaC+KtZEevYAAKBfPt5lXemrslggCAAAzbnoM93W1dxzr6aTgtNM6ysAAGjIxZ/vuK70VWGmLRAEAIBGXNbNQnZ9VTAL2gEAoAlv+/tAXemrwsyOpOcQAAAGX2fPXemrsnkACwAA1un3UnU1N/fz36aLgtPpKwAAWJf3xuJKXxXHA8MAALAOf5CsK31VGg8MAwDAmt2arau5uRfTQcEZ9BUAAKzRH6Xram7uF+mg4Az6CgAA1uTj6baap6/Koq8AAGAN/jRdVoteTgcFZ5jekB5MAAAYOIXUlb4qjb4CAIBVKqau5uZ+nQ4KzqCvAABgVQqqq7nnXk0HBWfQVwAAsAol1dWJvvL8VVn0FQAArFhZdeV54eLoKwAAWKHS6mpu7oV0T3AmfQUAACtSXl15/qo4+goAAFagxLqam/tVuic4k74CAIBllVlXnr8qjr4CAIBllFpX1rMXZzo9qwAAULaPpyvq3KxnL81EeloBAKBkf5RuqPOxnr00+goAAM7p1nRBnZ/1gaXRVwAAcA5/kO6n5byUzgmW0FcAAHBW703X0/JeSecES4ylpxYAAEr0e+l2WgHrA4uzIz23AABQnrfdn26nlXjeeovS6CsAAFji6oGoq7m5F9I1wVIj6dkFAICyXPb36W5aqV+ma4IlZrekpxcAAEpy8RfT1bRyL6dzgiX0FQAAnHLRX6WbaRWstyjOkQ3pCQYAgGJ8Jp1Mq/Jz6y1KM62vAABg0cfTwbRKL6ZrgqX2p2cYAADKcGs6l1btpXRNsNREeooBAKAEN6djaQ1+na4JltqVnmMAAMh7WzqV1uI516+K43lhAACq9+avp1NpTbwuXB7r2QEAqNwgPXh1Bq8LF2d2U3qaAQAg6s/TmbRmr6RrgqWsZwcAoGqDtpL9NM/9Jl0TLDWVnmcAAMgZvJXsp3H9qjzWswMAUK3r0oW0Pl6/Ko/1gQAAVOrN96cDaZ28flWekfRUAwBAwsAuDXyd16/KY30gAABV+ky6jtbvxXRM8AbWBwIAUKGPptuoCb9KxwRvYL0FAADVuTldRs14NR0TvMFYerYBAKBbVw/6WouTfu76VXmstwAAoCqDv9biNb9MtwRvYL0FAABV6cFai9fYzl4e6y0AAKjIB9NN1CDb2QtkvQUAANW4Lp1EjbKdvUA70jMOAADduOzr6SJq1ivpluANZv9lesoBAKATf5XuoYY995t0TLDUlvSQAwBAJ+5K51DjXkjHBEv4NhAAgDq8Kx1DLfhVOic4g4eFAQCow2U9eU/4DD4PLIq9gQAAVOLz6RRqhc8DC7I/PeMAANCNj6ZDqCU+DyyGN4UBAKhEv168Oo3PA0uhrgAAqMTFPXvx6jQ+DyyDugIAoBb3piOoRT4PLMHspvSMAwBAN25NJ1CbfB5YgFnPCQMAUImr0wXUrhfTbYG6AgCgFhd9MR1ALXslXRe1U1cAAFTjrnT+tO2536b7om7qCgCAavR2J/spv0gHRtXUFQAA1ejxTvZTfp1OjIodUVcAAFTjz9Lp04Xn041RL+9dAQBQj3ely6cbL6Uro1bqCgCAelTxaeA8j19FTKkrAADqcW86e7ryQjo0qjSRnm8AAOjOH6arpzsev+renvR8AwBAdy67Px093fH4Ved2pOcbAAA6VM2ngfN+ma6NysxuS483AAB06L3p4unWq+ngqIrnrgAAqMrFFX0aOM92iw5ZyA4AQF2qeFD4dC+nm6MeVgYCAFCXSh4UPs3ztlt0xFILAADqUs2Dwqd5KZ0ddZh17QoAgMrclW6dhN+ky6MGU65dAQBQmevSpRPxYjo9KjCWHm0AAOja36ZLJ+PX6fjou9mR9GQDAEDXPpzunJCfp/Oj5/b7MBAAgOpcls6cGMvZWzS7Kz3YAADQvXvTlRPznOXsrZm2MRAAgArV9+TVKZazt8VOCwAAanTR/003TpLl7K1wdAUAQJ3+e7pwon6RDpFecnQFAECdficdOGGvplOkf6YcXQEAUKl691oseiEdI31jYSAAANWqea/FIm8LN8pbVwAAVKvuvRYLvC3coCMj6YkGAICYD6fjpgDeFm6K7wIBAKjZZfen26YAz6erpC8mfBcIAEDN/jSdNkVwfNWEqU3paQYAgKTr0mFThud+m06TwTfl0hUAAJX7y3TYFOKldJwMuiPb0qMMAABhN6ezphSOr9blyI70JAMAQJql7K9zfLV24goAAC644IPpqCmH46u1mhJXAABwwQUXW8p+iuOrNbHQAgAAFtyVTpqSOL5ag4kt6RkGAIAyXJYumrI4vlqlI2MeEQYAgJO8KHwGx1er4soVAACccnW6Z0rj+GrFZvdsSo8vAACU5M/TOVMax1crtN8TwgAAcIb/mK6Z8ji+WoHpXW5cAQDAEn+ZjpnyOL5azvQuHwUCAMAbOLw6C8dX56OtAADg7D6fTpkSOb46p/3aCgAAzuHmdMmU6VfpiinSkT12WQAAwLn9bTpkyvR8umSKc2Rih2MrAAA4n5vTHVOql9M5U5JpaQUAAMtzeHUOjq8WHdk/NmIBOwAArMDN6Yop1yvpsImbmtilrAAAYMUcXp3TC+m6iZmd2j+2Q1gBAMDq3JxumJK9ms6cbk1NTU2MjW0b2ZIeSgAAGExbRmAkPYYAAAAAAAAAAAAAAAAAAAAAAAAAAAAAAAAAAAAAAAAAAAAAAAAAAAAAAAAAAAAAAAAAAAAAAAAAAAAAAAAAAAAAAAAAAAAAAAAAAAAAAAAAAAAAAAAAAAAAAAAAAAAAAAAAAAAAAAAAAAAAAAAAAAAAAAAAAAAAAAAAAAAAAAAAAAAAAAAAAAAAAAAAAAAAAAAAAAAAAAAAAAAAAAAAAAAAAAAAAAAAAAAAAAAAAAAAAAAAAAAAAAAAAAAAAAAAAAAAAAAAAAAk/IcbWJ+rBssl6YkDAIC+uuH/sU7ffGDg3HHH7TddL7QAAKBZd6fjZPA9ko6ltTuw96arLkyPIAAA9MUX0nEy+L6TjqR1OrT3+svTYwgAAD1wRbpNeuD76T5qwNHbr/WpIAAArM/70m3SBwN4+epsDtziEAsAANbhnnSa9MEAX75a4pDCAgCANftGOk36YNAvX53h0PW+EgQAgLV4a7pMeqEPl69Od/s16bkEAIABdGe6TPqhJ5evTjl0vXXtAACwSp9Lh0k/PJzOoeYd3esbQQAAWJV0l/TE4+kYaoXAAgCAVbgh3SU98VS6hFoisAAAYMVcvWpIuoNaI7AAAGCFXL1qyIPpDGrN0ZssuQAAgJVIV0lvfDtdQS06dG16TAEAYAC4etWUJ9IN1Ko7Lk9PKgAAFM/Vq6Y8ky6glvlCEAAAluHqVWN697DwEoeuSg8rAACULd0kPdLDh4WXuMUBFgAAnJurV83p58PCZzjgBhYAAJyTq1fNeTIdP124Pj2xAABQrHvSTdIjP0inTydu94EgAACc3TfSTdIn30qnTycO+UAQAADO5op0kfTKI+ny6cZRbwwDAMBZvC9dJL1SwW6LRbek5xYAAAp0d7pIeqWK3RYLXMACAIA3+EK6SHrlmXT1dOeAvgIAgCXSQdIz30xXT3csuAAAgDN5VLhZD6ejp0NH9RUAAJzutnSP9Ew1uy3m6SsAADjdp9I90jNPpJOnU/oKAABO85V0j/TMU+ni6Za+AgCAU9I50jvp4OmYvgIAgNfYbNG0B9PB0zF9BQAAJ9ls0bRH0r3TNX0FAACLbLZoWlWrAxccvSQ9xQAAUIQvpGukd55M1073DlyYHmMAAChBOkb65/vp2Ak4kB5jAAAowFvTMdJD6dZJ2JseZAAAyHtfukV6qLbVgQuuT08yAADE3ZlukR56OJ06EdekRxkAANI+l26RHqpvdeA86wMBAKjeN9It0kNPpEsnw3oLAAAq96Z0ivTRU+nQCbklPc0AABB1QzpF+ugH6c5Jcf0KAICq3ZZOkV5KZ07KUa8LAwBQM4sD21Dn6sAT7kjPMwAABFkc2IZH0pkT4/UrAAAq9pV0ifRSnZvZ59nODgBAxdIh0k+Vbmaf5/NAAACq9dZ0iPRTrZvZ512bnmkAAAh5dzpE+umZdOME2R4IAECtLA5sR7pxkjwuDABApT6V7pCe+la6cZIuT081AABE2MvejmofvppnuwUAAHX6RrpDeuof04kTdU16rAEAICGdIX1V78NX8w6lxxoAAALsZW/Jd9KFk2U5OwAAFbohnSF9VfPDVw84vgIAoEq3pTOkryrPK8dXAABUyLNXbUn3TZjjKwAA6nNPukJ6K903aY6vAACojmev2vJgum/CHF8BAFAdz161pep3hec5vgIAoDbpCOmvR9J5k3ZHerYBAKBbV6QjpL/qfld43lXp6QYAgE559qo18mpveroBAKBT8qo1T6TrJu/C9HgDAECXPHvVmtrfFT7h+vR4AwBAl+RVa+SV3ewAANTlU+kI6a8fpOOmAJen5xsAADrkVeH2pNumALek5xsAADokr9qTbpsCHE3PNwAAdCidIH32rXTcFOCa9IADAEB30gnSZw+n26YAnr4CAKAi6QTpM3lldyAAADXxqnCL5NUDdgcCAFARedWix9NpUwK7AwEAqIa8apG8OuFAesQBAKArt6UTpM/k1bwL0zMOAAAduTOdIH32nXTZFOHa9IwDAEBH5FWLnkqXTRGsZgcAoBZ3pxOkz+TVPKvZAQCoxefSCdJn8mqBy1cAAFRCXrVIXi24Jj3kAADQDXnVomfSYVOGm9JDDgAA3ZBXbUqHTRnuSA85AAB0Ix0g/ZYOmzIcTQ85AAB0Ix0g/ZYOm0Jckp5yAADoRDpA+i3dNYW4Kj3lAADQiXSA9Fu6awphtwUAAHVIB0i/PZgOmzLsTU85AAB04Yp0gPTbw+mwKYPVgQAAVOGGdID0m7xaYHUgAABVkFetkleL0mMOAABdkFetkleLLk/POQAAdEBetUpeLbKZHQCAGsirVsmrRdek5xwAADogr1olrxZ5+AoAgBrIq1bJq0XyCgCAGsirVsmrRbek5xwAADpwWzpA+u3xdNcUwrvCAADU4M50gPSbvFokrwAAqIG8apW8WiSvAACogbxqlbxaJK8AAKiBvGqVvFokrwAAqIG8apW8WiSvAACogbxqlbxaJK8AAKiBvGqVvFokrwAAqIG8apW8WiSvAACogbxqlbxaJK8AAKiBvGqVvFokrwAAqIG8apW8WiSvAACogbxqlbxaJK8AAKiBvGrVt9NdUwh5BQBADW5IB0i/PZzumkLsTc85AAB0QF61Sl4tuik95wAA0AF51Sp5tUheAQBQA3nVKnm16Nr0nAMAQAfkVavk1aKr0nMOAAAdkFetkleL5BUAADWQV62SV4vSYw4AAF2QV62SVwuOpsccAAC68NZ0gPSbvFrgVWEAAOqQDpB+k1cLvCoMAEAd0gHSb+muKYRnrwAAqEM6QPot3TWFuCY95QAA0Il0gPRbumsKcUl6ygEAoBPpAOm3dNcUIj3kAADQjc+lC6TX0l1TBosDAQCohLxqUzpsynBLesgBAKAb8qpFT6XDpgw2WwAAUAl51SJ5tcBmCwAAKnF3OkH6TF7NO5SecQAA6Mid6QTpM3k1b296xgEAoCPyqkVPpsumCNemZxwAADoir1r0eLpsiuDqFQAAtbghnSB9Jq8ecPUKAICKyKsWyasHvHoFAEBF5FWLvp1OmxJ49QoAgGq8KZ0gffZwOm0KcDQ94QAA0J10gvSZvLKWHQCAqqQTpM/klW8DAQCoyufSDdJj30y3TZ5vAwEAqIm8ak+6bQrg20AAAGpyT7pBeizdNgW4Kj3fAADQoTvTDdJfz6TbJs+bwgAAVEVeteapdNzk3ZQebwAA6NK70xHSX/LqgUvS4w0AAF26IR0h/fVEOm7ibk9PNwAAdOqKdIT01+Ppuomz2AIAgMqkI6S/qs8riy0AAKjNN9IV0luPpPMm7dr0bAMAQMe8K9yWh9N5E3Y0PdoAANA1edWW2vPKVnYAAKrj4au2pPMm7OiF6dEGAICuyau2pPsmzOEVAAD18fBVS76f7pssh1cAAFRIXrXkqXTgZDm8AgCgRukM6asn04ET5fAKAIAqefiqHXW/KuzNKwAAqmQzezuqzqtD6akGAICIT6U7pKeqfvbqqvRUAwBAhM3s7ag5r25PDzUAAGS8O90hPZVOnKCjl6SHGgAAMmxmb0e6cYIsZQcAoFrpDumnip+9OpCeaAAAiLGZvQ0V59Xl6YkGAIAYm9nbUO9edp8GAgBQsbvTJdJL1eaVTwMBAKjZbekS6aVq97L7NBAAgJpZHdiGB9OZE3J9epwBACDpTekS6aV05oR4UBgAgMpZHdi8H6Q7J+PQhelhBgCALKsDm1fpXnYXrwAAqJ3Vgc17Ih06EdemRxkAANKsDmxelXvZ96YnGQAA4qwObF6Ne9nvSA8yAAAUIN0iPVThXvYD1loAAMAFF3whHSP9k26d7h211gIAAE64Jx0jvfNMOnY6p64AAGDBneka6Z369rJfkx5iAAAog90WTatucaCV7AAAsOhN6RrpnX9M507H1BUAALzmK+kc6ZvK9rKrKwAAeJ3dFg1L90631BUAAJxit0Wz6locqK4AAOA0dls0q6rFgeoKAABOZ7dFsypaHOi9KwAAWOIL6SDpl3oWB6orAABY6lPpIOmXB9PV05UDF6YnFwAAinNbOkj6JV09XbldXQEAwBu8NR0kvfL9dPZ05Kb02AIAQJHSRdIrT6S7pxNHr0kPLQAAlOlz6STpk2+ny6cLBy5JzywAABTKw8INejidPh24xbUrAAA4Bw8LN+ib6fZpnQ8DAQDgPNJJ0iPPpOOndTYGAgDA+XhYuDFPpuunZUevTw8rAACU7e50lPTH4+n+aZejKwAAWMa701HSH73ebHHIrSsAAFjOm9JR0h993mxxk6MrAABYnstXDenxZou93roCAICVcPmqIU+kI6gtd1yVnlEAABgQLl815NvpDGqHuAIAgBVz+aohvdxsIa4AAGA1XL5qRrqEWiCuAABgde5Md0k/PJVuocZZaAEAAKt1QzpM+uE76Rpq1qHrrWIHAIDVS4dJPzySDqIGHd3rq0AAAFiTe9Jl0gvfSjdRY26/1sEVAACs0W3pMumDnjwqfFRbAQDAelyRTpM+eDIdRg04cItvAgEAYJ2+km6THhj0R4UP3HKNYysAAFi/u9Nt0gMPpvto7e7Ye71TKwAAaMi7020y+H6QbqQ1OHrHHTddf5XHrQAAoFF3sk7/5aYBcs1VJ6RnDgAAAAAAAAAAAAAAAAAAAAAAAAAAAAAAAAAAAAAAAAAAAAAAAAAAAAAAAAAAAAAAAAAAAAAAAAAAAAAAAAAAAAAAAAAAAAAAAAAAAAAAAAAAAAAAAAAAAAAAAAAAAAAAAAAAAAAAAAAAAAAAAAAAAAAAAAAAAAAAAAAAAAAAAAAAAAAAAAAAAAAAAAAAAAAAAAAAAAAAAAAAAAAAAAAAAAAAAAAAAAAAAAAAAAAAAAAAAAAAAAAAAAAAAAAAAAAAAAAAAAAAgIH0b/49y0n/RgAAwED4/X9gGY/+Ux0OT05O7hsd3Tk8PJSeSgAAGExfStdL8X6Y7p6AmROhtV1mAQDA6ji+WsbxdOokTY6PDm9MjygAAAwMx1fn93Q6ceJmJke3aiwAAFgBx1fn99N03ZRhZt/ocHpUAQCgeI6vzue76a4pyaTEAgCA83J8dT4/TidNafbt3JyeWAAAKNdfpxOmYA+la6ZEh3dvTc8sAAAU6pxmIhYAACAASURBVD+lG6ZgNW5lX4mZfdutbQcAgLP4P+mIKdaxdMaUTGEBAMAbvT1dMcWylf38xn0lCAAASzi+OoefpfuleDO7bboAAIDTveVYumPKZCv7Shzc6SNBAAA45ZPpkCmTJ4VXaNwRFgAAvOZSx1dn8Vi6WgbIwe3pGQYAgFL8cTplSuRJ4dWYGfWNIAAAzBv6WrplyvNoOlgGzvjG9BwDAEAJPpCOmfJ4Unj1xofTgwwAAHlDX0rXTGmOp1NlME0Op0cZAADifj+dM6VxeLVGAgsAAO5L90xZHF6tncACAKB2b7ec/XRPpxtloFlyAQBA5bwtfJpjP0sXyoDbbU07AAA1u/R4umkK4vBqvWZG0wMNAABB/zXdNOVweNWAw1vTEw0AADGWs7/O4VUjJl3BAgCgWjemq6YUDq+aMuoKFgAAtfpsumsK4fCqMb4QBACgVldazj7P4VWT9jnAAgCgTh9Jl00RHF41amZneqwBACBh6MvptCmAw6umWXEBAECVbLdweNUCB1gAAFTJdguHV21wAwsAgApdWv12C4dXrZixQhAAgPp8IJ03YQ6v2rLbARYAALUZ+lI6cLIcXrXm4Ob0cAMAQMfeXvXngQ6vWjSzPT3cAADQsT9OJ07SD9MJ0m/jPhAEAKAuQ19NN07O8XR/9N1BT2ABAFCXd6YjJ8fhVdtsEAQAoDKfTldOykPp+KjBaHq8AQCgSxu/lu6ckB+n06MKLmABAFCV/5zunIxH0+FRiYP6CgCAmnw2XToRDq86MuMFLAAAKnJpjZ8HfjddHfXwAhYAADWp8fPAn6ajoyb6CgCAitT3eeDT6eKoy3h6wgEAoDOX1va48LGfpYOjMvoKAIB63JjunY55Ubhr+ywQBACgGp9MB0+nvCjcPQvaAQCoxlBVnwdayh6grwAAqMY7jqWbpzuPpUujTvoKAIBq/I909HTHUvYMfQUAQC2G/iZdPV2xlD1FXwEAUIsrK/k88Lil7DH6CgCAWrw/HT7d+FG6MWqmrwAAqMVn0+XThUfThVE3fQUAQCU21rCd/SfpwKicvgIAoBLv7P/1q++l86J6+goAgEp8JF0/bbPXIm88PeUAANCN+9L90zJ7LQqgrwAAqMOl/b5+Za9FEXanxxwAADrR7+tXP02HBQu2p8ccAAA60efrV0+ns4KTtqbHHAAAOtHf61fH01HBa/73v0iPOQAAdKG/169+nI4KXuP0CgCASryjp9evPHlVjNH0jAMAQFc+kA6hVhzz5FUpJtMTDgAA3flsOoXa4MmrUhweSg84AAB0Z+hL6RZq3mPpqOA1m9PzDQAAXbrya+kaappPA4vh0SsAACpzY9/WWzybjgpOGk/PNgAAdK1nrws/mo4KTjqYnmwAAOher9ZbHPtpuipYNGOtBQAAFerVegufBhZixloLAACqdOVX01HUGJ8GlsJaCwAAKvXOvqy38GlgKXanZxoAAFLen+6ihvg0sBD70hMNAAA5H0uHUSN8GliIg9ZaAABQs/vSadQADwoXYmZjepwBACCpD+sDf5TOChZYGggAQO0Gf33gY+msYJGlgQAAVO/tA74+8LhPA8uwMz3JAACQd+Ng99WP01nBgvH0HAMAQAk+lC6k9fheOitYMJmeYgAAKMMAr2d/KJ0VLLCSHQAATvpsupLW6thP0l3BvMPqCgAAThoa1Oevnk13BfOsZAcAgFMG9PkrO9mLoK4AAOB0A/n8lZ3sZfDgFQAAnGEQ+8pO9iKoKwAAWGLwnhd+Ot0VzPOcMAAAvMGgPS/8aLormOc5YQAAOIvB6qtjLl6VQF0BAMBZvSedTKvh4lUJ1BUAAJzDx9LNtHIuXpXgYHpiAQCgXAPTVy5eleDgUHpgAQCgYAPSV168KoG6AgCA8xqMvvpJuixQVwAAsKxB6Ktn02WBugIAgBX4n+l4WtZ302WBugIAgJUYui+dT8t4yMWrPHUFAAArUXhfHXPxKm9GXQEAwIqU3Vc/SqcF/zSzOT2jAAAwKEruK+8J56krAABYuXL76rF0WuDeFQAArMpQofsDrbXIU1cAALBKRb5/Za1FnroCAIBVK7GvfpxuC9QVAACsQXl99Wy6LVBXAACwJqX11XfTbYG6AgCANSqrrx5KtwXqCgAA1uw9x9JNdYqlgXHj6XkEAIBBdmMxfWVpYJy6AgCAdSmmrywNTFNXAACwTu/4ajqsFvwwHRfV25meRAAAGHxXltBX30vHRfW2p+cQAAD64Movp+PKSva0GXUFAACNGLovXFeWBobNbE7PIAAA9MXQX6irmh1WVwAA0JzkA8NWsod5TBgAABr1odiCdnUVNqmuAACgWbEHsH6UzovKee4KAAAaF3oAy4NXWZ67AgCAFkQWtD+bzou6WcgOAADtCCxo9+BVlIXsAADQlqGuFwiqq6iDG9MTBwAAPfb+ThdcPJbui7rtszIQAADadGOHCy48Jxy1Oz1rAADQd90tuFBXSZZaAABA+4b+Ql31n6UWAADQiY91cQHrmLoKOujaFQAAdOPG4+3X1U/ShVGz8fSEAQBAPVq/gKWukly7AgCADrV8AUtdBR127QoAALr1oRYvYKmroEnXrgAAoGvtvYClroJG03MFAAA1uvI+ddU3M1vTUwUAAHUaamVDu7rKObgxPVMAAFCtFj4QVFc5u9PzBAAANWv8A0F1FePDQAAAyGr4A0F1FePDQAAAiGvyA0F1FTOaniMAAOCCCzY29sSwukqZGU5PEQAAsOADzXwgqK5S9nlKGAAASvGWv1FXg2tmZ3p+AACAU4Y+se4DLHUVcnBzenoAAIAzrHfDhboKGU1PDgAAsNTGT6+nrh5SVxGHh9NzAwAAnMV71n6A9dDP0p1Rp912WgAAQJmuXOuKdnUV4egKAAAK9v7j6mpgjDu6AgCAkq3lAOu76c6o0uGt6VkBAACWseoDLHWV4NYVAAAMgFWuEPxeOjRq5NYVAAAMiNWsEPxhujRq5OgKAAAGxsZPHlNXxTo4nJ4PAABgFd7x5ZXE1TGPCXduZjQ9GwAAwOoMfWj5A6zj6qpzkxvTkwEAAKzaW5bb0e65q87N2MYOAACD6fwrLh5TV12z0gIAAAbW0CfO/YWg5666Nrk5PQ8AAMA6vOW+c9TVs+nYqM3M9vQsAAAA6/Ses+0QPGYhe8d8FwgAAD0w9LHjb6grKwO75btAAADoiSs/bWVg0mH7AgEAoD/e8denL7VQV13yjjAAAPTM+1+/gvV0ujfqMu7SFQAA9M3QR45batG5yY3p3x0AAGjBxk8c+4fjllp0aHI4/ZsDAAAtecv/cu2qO4e9dAUAAH02fDgdHbXwjDAAAPTedoHVgZlRGy0AAKACAqtt4goAAKoxOpMOkF4TVwAAUJEhgdWacbvYAQCgLgKrHeIKAAAqJLAaN7NbXAEAQKUsuWiShRYAAFA1gdUUcQUAANXbPpkOkz44vFNcAQAAFwwLrHU6vD39GwIAAIXYOJ4OlEE2OZz+/QAAgIJstEZwjcY3p387AACgMEO2XKzezKhN7AAAwFkM70vnymA56MoVAABwLht3+0ZwpcaH078WAABQtKHtB9PdMggO+yoQAABY3mZ7BJexb2v6NwIAAAbE0E5HWOfk4AoAAFiVzeNuYZ2NgysAAGDVhrZPplumNId3OrgCAADWZOOot7BeN+MBYQAAYD2GfSS4wEeBAADA+m2t/rXhg9uH0j8CAADQD0PbKy6sgy5cAQAATap00YW2AgAAWrCxtjMsbQUAALSmoq8EtRUAANCyoa0V7BLct11bAQAAXRje3eP3sGbGt9oTCAAAdGfjzl5+Jnhw1NvBAABA97b26xDr8LjnrQAAgJiN2/f14ybWvp2OrQAAgLTNOwc8sSZHh9N/hwAAACcNbGJJKwAAoDybd44P1F2smX3SCgAAKNbGrbsn09m0EgfHt7trBQAAFG945/jBdD+d22GHVgAAwEApsbHmy8rudQAAYBBt3j46WcbKi8ndO4fTfxsAAADrMzS8c3cwsibHR4c3pv8OAAAAmjO8fXRfp2svDk6O7vQtIAAA0FdDw1tHd0+2eivr8OT46HYHVgAAQCWGhod3jo5PNnicdXBy3+josOMqAACgWidCa+vo6Ojk5OrPtA6f+I92j45uH3ZWBQAAsNS/2jhv+Dz+7cK/kf7/BAAAAAAAAAAAAAAAAAAAAAAAAAAAAAAAAAAA+P/s3Tta68oSBtATOCYjdkRGSO6QlJjYE2ACzMAjYnIHm8fmYaBa6qe0Vni+ezeWbJXq7261AAAAAAAAAAAAAAAAAAAAAAAAAAAAAAAAAAAAAAAAAAAAAAAAAAAAAAAAAAAAAAAAAAAAAAAAAAAAAAAAAAAAAAAAAAAAAAAAAAAAAAAAAAAAAAAAAAAAAAAAAAAAAAAAAAAAAAAAAAAAAAAAAAAAAAAAAAAAAAAAAAAAAAAAAAAAAAAAAAAAAAAAAAAAAAAAAAAAAAAAAAAAAAAAAAAAAAAAAAAAAAAAAAAAAAAAAAAAAAAAAAAAAAAAAAAAAAAAAAAAAAAAAAAAAAAAAAAAAAAAAAAAAAAAAAAAAAAAAAAAAAAAAAAAAAAAAAAAAAAAAAAAAAAAAAAAAAAAAAAAAAAAAAAAAAAAAAAAAAAAAAAAAAAAAAAAAAAAAAAAAAAAAAAAAAAAAAAAAAAAAAAAAAAAAAAAAAAAAAAAAAAAAAAAAAAAAAAAAAAAAAAAAAAAAAAAAAAAAAAAAAAAAAAAAAAAAAAAAAAAAAAAAAAAAAAAAAAAAAAAAAAAAAAAAAAAAAAAAAAAAAAAAAAAAAAAAAAAAAAAAAAAAAAAAAAAAAAAAAAAAAAAAAAAAAAAAAAAAAAAAAAAAAAAAAAAAAAAAAAAAAAAAAAAAAAAAAAAAAAAAAAAAAAAAAAAAIAVud5FtP6UAMAqaVSAseyfIlp/SgBglTQqwFhULQCgWxoVYCyqFgDQLY0KMBZVCwDolkYFGIuqBQB0S6MCjEXVAgC6pVEBxqJqAQDd0qgAY1G1AIBuaVSAsaharFvofZXXrT8lwGppVICxqFqsW+gK2Lf+lACrpVEBxqJqsW7iFUDXNCrAWFQt1k28AuiaRgUYi6rFuolXAF3TqABjUbVYN/EKoGsaFWAsqhbrJl4BdE2jAoxF1WLdxCuArmlUgLGoWqybeAXQNY0KMBZVi3UTrwC6plEBxqJqsW7iFUDXNCrAWFQt1k28AuiaRgUYi6rFuolXAF3TqABjUbVYN/EKoGsaFWAsqhbrJl4BdE2jAoxF1WLdxCuArmlUgLGoWqybeAXQNY0KMBZVi3UTrwC6plEBxqJqsW7iFUDXNCrAWFQt1k28AuiaRgUYi6rFuolXAF3TqABjUbVYN/EKoGsaFWAsqhbrJl4BdE2jAoxF1WLdxCuArmlUgLGoWhS07f/nJV4BdE2jAoxF1aIg8QqAeTQqwFhULQoSrwCYR6MCjEXVoiDxCoB5NCrAWFQtChKvAJhHowKMRdWiIPEKgHk0KsBYVC0KEq8AmEejAoxF1aIg8QqAeTQqwFhULQoSrwCYR6MCjEXVoiDxCoB5NCrAWFQtChKvAJhHowKMRdWiIPEKgHk0KsBYVC0KEq8AmEejAoxF1aIg8QqAeTQqwFhULQoSrwCYR6MCjEXVoiDxCoB5NCrAWFQtChKvAJhHowKMRdWiIPEKgHk0KsBYVC0KEq8AmEejAoxF1aIg8QqAeTQqwFhULQoaIF5dbgMum35EgDXTqABjUbUoaIB4BUDXNCrAWFQtChKvAJhHowKMRdWiIPEKgHk0KsBYVC0KEq8AmEejAoxF1aIg8QqAeTQqwFhULQoSrwCYR6MCjEXVoiDxCoB5NCrAWFQtChKvAJhHowKMRdWiIPEKgHk0KsBYVC0KEq8AmEejAoxF1aIg8QqAeTQqwFhULQoSrwCYR6MCjEXVoiDxCoB5NCrAWFQtChKvAJhHowKMRdWiIPEKgHk0KsBYVC0KEq8AmEejAoxF1aIg8QqAeTQqwFhULQoSrwCYR6MCjEXVoiDxCoB5NCrAWFQtChKvAJhHowKMRdWiIPEKgHk0KsBYVC0KEq8AmEejAoxF1aIg8QqAeTQqwFhULQoSrwCYR6MCjEXVoiDxCoB5NCrAWFQtChKvAJhHowKMRdWiIPEKgHk0KsBYVC0KEq8AmEejAoxF1aIg8QqAeTQqwFhULQoSrwCYR6MCjEXVoiDxCoB5NCrAWFQtChKvAJhHowKMRdWiIPEKgHk0KsBYVC0KEq8AmEejAoxF1aIg8QqAeTQqwFhULQoSrwCYR6MCjEXVoiDxCoB5NCrAWFQtChKvAJhHowKMRdWiIPEKgHk0KsBYVC0KEq8AmEejAoxF1aIg8QqAeTQqwFhULQoSrwCYR6MCjEXVoiDxCoB5NCrAWFQtChKvAJhHowKMRdWiIPEKgHk0KsBYVC0KEq8AmEejAoxF1aIg8QqAeTQqwFhULQoSrwCYR6MCjEXVoiDxCoB5NCrAWFQtChKvAJhHowL8t322++z6+T9dtv5cZ41dtTbb7ZmzfXT8z5vWHy+vi+dDuv52oNfbng9VvCrrdAHcfP9FXLT+YOnOX8inX3efpTOXy+9f4c3xqFt/rtJWVbxnuLja7Q+Nfg391JdKjcqZm2y/zRusxOb5qrzd/14EDvv9bnfV1X1zsHj1XO6vnive/f6PM/3mYX/3XB4HbDb/uXxuQPb7x7+P9fnX9Xy0p+ak9Wd+J16VcPFSa37/TRxOv4arzjuDY9m8C13MD/tj9Tw2O0Nfzu9eruvDr8e8H798fbDC4j3X5c39y1VetaT3WF/KNirbv2+yz8d721nzBsu3vbn94zb57Uq9venkOh0iXl0eb8v3+4eUc/zZ851gvPHQy+tdJFad9Xbza9yciFd5Pfc9Ey6Dl8agsz51s33OVcmH8urhGLVuOhpHSHF5lXpdH8tXZ19f2EqL93zP0epfV1Hplz6nvpT9igo1KpsJzdvuuu8hK1iGi+u7yfeNh7ub9pdpz/Fq83xj/mtCMMVjDyc85uLqNttxH29+rQaBxatstjfTS82rxwptUPBY7qeOG3w/pvvjhG3rIwraPCerqUd6uN+Ncpj/rbp4Z3Bxff+55y//zWeoLw8F60v+RuW06HLqoe53Vx3UUViqzfXd7B7hcH/TdlSyy3h1ujPPrfU/nPC7697LYo7f1dlDf25EbyrHLPEqixlN+TkNfgj/XOY9lncP3a/dubqdX9P23UesdRfvHK5uv9f/ot/6JuNg3tFzfck+npe3UbnMMb7zsFtR4Id6LnfZ7iCPt1ftjqOvePV8a76bPqIU9dA40v7mMkML9ofH/V2ePvTcU+lf3IU+0d//TpK0Y/u+W8gZ1xlO10SXN2XiyDGQPHdBVfvVzddB+QL2+4bZ8UfPR57rAA/3fYaMJRfvi1DhyfCHfvqdlItXpYY7nr+q+4z1JV+jkvOAD3cNezdYosszw0uDXqWdxKvTEugiczbnPXTZoWT/Xf3mMDtl7ep92CRpbU7oCtjPOU8zbCv8ImptIJAxYQQ8dJSy8h/5vqf6tYLiXWcW/uLmx7G1QvHq3ERZbnnqS55G5duiy/kOd+awIJPNzzVwwKu0ebxKf7Y0k7vOVtlc1MxW/5y2WZnWrohXZVVN26dJzYIxq2q2+ufhfnfVuP25KnPk9w1nVN+spnhXiFe/ZKunMvHq8q7mVzezvmRoVLalVob0OVgLo9nGljsNc5W2jFfb6zb35jf7DhqUV5vr4msCf/U4ZTsk8aqgzU2TtF3mUq/byH3Xbu+5i125r/Fw23B2bl3Fu3S8+nPMNnu8Gq2+zG1UroqWoMNOwIJ5SjfB9W+YbeLVxXaXbeuwOR77CFgXt227zzcPafs/i1fFlBzF+V2Bg7ku9XBHmuOOypUnPS5Lf433Dabg11i8y8arwMxu5u95vPoyq1Epm61e3HWyEhmGdF3jplL5Kq0ery7nbIea32P7R1Pb3erOSQgS4lUhLfNI7mNpNUr+g5pxZFvja6w6i7Pa4l0wXsVmdrP+bhvWl8PUzzy9UamRrY7MYMFUVcLVUdWAVTdeXfUxjv3Jvu2jGVV6sATi1Tk141W1QnPOY95j2ew66saP6sWrahd2rVmcNRfvUvEqPPiQ8XfbtL5MLqQTG5W6u0X1sRgGBlO1JlUMWHXjVZ8N+W27UafewpV4dV69eHXVdrIn64F2F67qxauLmhf2vspR9Xm515kyKBOvEtYtZPuGm4aryvGq/hPNeysEIVHtLrjePHPl2avC522ix0abCF602U3tV3fxj99nvzV0vGoet3Me6HV34erpqU77s6m93ve+wnGtuXgXiFebpKCT6SDHrS/pjUqTRfeHm/lfEqxI9ZvlU72Ov268it2lGsjxRshUm9vWR31OwpkQrzJrUWiKHei2q2eu3mQ7vN/cNMiV5SvYmot39niVuptRlnbgYuD6ktiopIXXnPaewIKwqzaDsPdVLlPx6kX9otjj2P6TeHVelXjVoisvdaA9TsweZTq831y2mSEoPiC35uKdOV5tk6+OHF/u0PUlqVG5aPkiiIPXDEPMplmfcKixL5J49apyUaz6bEYK8eqcCvGqj19EwtrQ3/TQyZ2V5/B+0+6qKPwM6ZqLd9Z4NeWJoPnxqo/6MnmmMaFRSQ+vmdnhAiIaTV29uCs/pSJevamSZt90236KV2eVj1edTGZmWWjVRyd3Vo7D6/bQH4qmjDUX73zxauKqtdnxqpM7Tvl41XjvjpMWzxrAaBo/HvNYfEql8nuvCp+veaoNOnXcfopXZ5WOV+3myL/I0Rh00smdleHwftN0NO5Z0Qfr2x7aH8oW71zxavJemjPj1fj1JXbL3Ow6CFdP2RYBwHJd1N7X87vSLb949UGtF8h03H6KV2cVjleX7QvNq/nxqptO7qwMX9Yv2m9WU3LBQ+tj+13R4p0nXs14UcG8eHXZR+h4Kh6vurmzylfwq20PF2vh61S8+qhKvmrfg/1GvDqnbLzqKG/Pjlf9dHJn5fi6frLpISQ/lNuivfWh/aFk8c4Rr2a9BW5WvOpk4fFR4XjVD/kKfnHd+gp9UXZbJPHqk/L5atP5fSLhDIhXedyUPiEJ5l4AHXVy5zxm+cLOu+zj0Mtt89D6yP5SsHjPj1czX7E9J171VKcnH0fnt83vvAALftT+HRGvHkrmq8rxqo8O5BelH3brZxnYDxLufz3dtj8aLF51U2iOZj7j0etP4k3B77GbKchDqZjRywH+qFzxnhuvZoarWdflMurLcPHK/oHwk46KUsltZyvHq+6L5KHc2pqjTka4fyFenVOwLe+o0DzNjVd9HcsZ5b7HTtY6nBRq7FZcvGfGq/m72U2/Lvu6JlcUr7z/Cs7qYhn9u4IXqnj1RdG5wv7TlXh1Vrm2vK/uZ1686uxYzij2PfaUrkrlqxUX71nx6irD44hTr8veNppZUbx6eiz/Xh0YT1/pqmS+Eq++KvhM6gDpSrw6q1hb3lsimROvejuWM0p9j32lq0L5asXFe0a82mY5bVOvy87S1ari1dP91IOF5eotXRXMV+LVN8XeUDlCuhKvzirVlneXSGbUme6O5YxC32NPm5O8KJGvVly8J8eri0xXxcRY0t01OfkbGOHH903hl13DePpLV+WWlVeOV92V+zMOheb0NyOkK/HqrEJteX+Xw/Rj6fXX8EmZ77G3uaujAvmqv1/rd4WK98R4NXtHi3fT4lV/39jkb2DIeFWqlYBhdXklF1pWXjleDdGDlZnT7zG0nyFenVOmLe9v0mP6ld5jxPiuyPfY56HnHznv9Xr/pEzxnhav5u9o8W5SvOrwC5v8DXTZlP3J26/gk/6GfE7K5Cvx6owic/q9rYL/QcIsaa9f5ijx6qr0iZhg6rFctv7gMSXanT7TVYH15L1e758VKd5T4tVlzkQwJV71+MOc/A2MGa/mvugCluW29RX5kyIjIeLVGSW2/OlwpuKsBXyZg8SrLh/Fm3gsm3zj9EWl/TRCug2W2Vcm9Xq9f1Zkv7b0eLXJ20dMaNOXVF+GjVdF30cPg+lxyOdVifeAi1fn5O/Cum3CvlrAlzlGvOpysehh4sEMMjVb4MK+6LGJffGQ+VB7vd6/KBCh0+NV7pdMp8erLuvL9J/koPHK7hbwLkMbvN/f7nZX2w+ud7vbfYb6UGCmuXK86nE91BnZNxIZZXRfvDqvQLzqcg3yxOMcZWo2f+udoYl92N/tdtcf7xfb3W63389v0G/zHutai/d/yfHqInsYSL/1L6m+/DduvHqcfMSwMLN2dzvsb69/K4Ob7c3trCpRYCOayvEqdptKOif7c+Y2PbkXYna74vSbhIMSr2bos1eddpwdz+B8kT1ezZq2e7i72f6WBbZXu3khK+/Q+VqLd/jQ3/7X2fYL/Cc5Xi2pvhyNGq8KveIbxjO5sh/uroOPEl/e3E+uvvm7vHHi1ePxzrs7ehnh/fNPXc/pTfKOgGZpTB5Ph/9pWvR9cvQ03L3fZ5gjSzgq8Wq6rLv0P54mzHfffhhXx9/F7fGHEf2Xph1nltZnf5zEufn+6z4dxO4u5Sh+ljteTZ+22++CHfPF9d3kyzrvRM5Ki3f80F/+t5clVuWlxqusIx6t68tRyXh1ONWeLzPIx6PLsebI9BWcTJxkeNgl7tK0vZ14x8z++FXP8Wp/qurHjmvy/fLyZuK9Lu8I6LzYc9g/V/7wxOXl241h2pEnHJV4NV2eh5Ue7uO/jIuXduj3XmjScc58XPXhbrcN18/NczW42e3uJ66dyxyvJi4lP9wlTitdTC1jWX+3Ky3eRwnxqkxVTI1XedLIc325Sq4vv31pfcWrh/0xM/5xfJvtzd2swGzzQPhv4vDc4+2k+8fl3ZT+IPu68srx6s9+5GWgLDC+GXZxMync5FyHOePRSpYagwAAIABJREFUlP3uasYnuTj1okmtaMK/Ll5NNn/pzsNtdLr8jM1pyvPMbOeUtwbNeK7w8e5mzvbhp4buLmUcIW+8mnbkqdnqxcQylnM87s/bYy/FO/8i+nC82hZ6yDbxlM6vL/si9WX604B549VxSCelldpcTR0Qt3kgHE1ZsHM/fXn7ZspbB3Nfq5Xj1X/n//3DceXIdcbb8mfbCbU5YyM2dSHY492caPXlMxyfl7/7e/VgylIG8WqqmTudPEQXlgW8NkKHKafuxdSfwX5WtPrs8uUo/vybeR+EmDAF+Xg9/ZLeTvh7WcfjfvgTiy7erx8i9GcLPmObdnZnLj3uq768yBavJufGyVPIBbZagdGk373uZl45V+lFI/PywKbx6vQ00dX01SNx6ffojEumJ/Wfh7vsrwU9OeWsnxvRlBxx8f1Bma9i83Z//ztJ0n5PLeLVnGB6P6NB/83FcSpoQvyY1so9FDqKY876ZRQhawZInyLYz9xr4iJ9O7icv9xP//BKivfrRwj92SJPXT3fCu538bXhJ3NSXm/15VWOeHU8kbOO4XLSdoxFXlgKQ0m+W84NV6c/mjqOnXnhQ4N4td/fH+/LZdLDj5JXbWQb6J7Sf+7L7zd0PmZlzhHpr+OsrkG8ukj8NXz4HIV6nxkmRMXDtPXUKS7Ox6yc8Sr5ut5n+OsXyWOAGSvJ0/qK99sHSD3ruexvr9KvlUXVl1dz49XhPstk+WbCrpAFNnyGsaTeLfeZWoSbxL+bdyykdrxqN1G+SRzSm/IYylnp/WeOPixse/WxDxWvzn8jWf/kxFfSVEgl6dIHDw67iu3Gxfbm4yBCzgsrMeg8Zmr5t4lTJBmbuxUW71ct4tX0uZaJ++Z0WV/ezIpXD7f5LvzUn+KTvdkhrSY95nulSOo7CLP23rXjVUtXaZ1gpntNk0HudJfb3e1zyhKvzn8nOf/itF5tzlM7BaUOHlQNV+822+vd/T5r7Uxc7JDxsBNPefYHkZpoU7zfVI9Xcx5MXFR9eTM9Xt3fZP4xJL802uYWrFxaTbrNWorSJrCyXqxrilf/XSQN/GZ6yi1x2+pD26GuJm1J3r+ZqH68mtIp5Jr7yC5x2dZ90wHyTb6ynbY7yUPW1XSJz/h0PCeRoEnxflM1Xs2da1lUfXkzMV6VeZIsdSvgZVyBMFXK3fKQb+rqRdr9MudfX1W8+m+Tcp4f8vzNtFbovushxGTi1XcTWrU2Uz4RaXM42QtnO0lTSNP3oz5vk7S8dCGP1rco3m+qxavD/fXcXnxSfclylkqaEq9K7dLx3LCljSplf10pjCTlbvmQfzBik1I9cu6LtK54lXaLzvI1J715tPHUVX7i1cQ/+EnbKZ9fJS2p3vcaEtOl7B5QIlQmjZ9X3oiilPrF+12dePWY5RGhRdWXd8lH9ZB7TeAnSb/F3GEfhpLygEyZwcCU8ciMTfjK4lVSWcwy5pTyvR4W0gf9I159k5S3T7+Kjqd8kvYoW8gsyklCrMy7MPBNyprjpTz7Ub14v6sQrx4yvQYu+aP2XF/+SYtXpV5r8s8maWBpgPwKpSTsBlNqHj2hD884fbW2eJXyzESWriQhtxeYFW1NvPomddvArn8VKZMoS1ohk9DDPhSasrtMqCxNNsspoHbxflc6XmWcallUffknJV7dVwmMKflqSbUP0iQMwpZbvpVQF/N9iNXFq5S2JENjlPBsSqk+rCXx6qvUd9L0PeWTMJ2wqHWv8Wav3PeXUMj6/hElqFu8/ykar7IuY1tWffknfMU93FS6j6bMpS5l/hjSxZNNySYh/inyreVdX7xKGHHPMAgWnxZd5MsHxauvEnfV7juUbOIH0v/D8wni3XbJ7jVh6GaMGYqAqsX7n3Lx6jHzI0KJb2Xqu758EGtUHmu+uivliZIl3twhIj7iU7Yaxaebs632WGG8ig+EZdjwK7yaZXnPXR2JV1+lvb6n8+4n/gDQKIPkMeGruuxhr/H01yze/xSKV4fb3FU/8S2LndeXD3psVBJ+FeOcaMgrPG1U+CKJTzdneyt9j1WrtHCanj9J2Etwb0W8+iLtLWi9/yjChXNZC1/DX2LpNUHxqYrFnP+KxfuDIvHqrsAjQsuqLx902ajElyIsZ3wDkoQrdu7Xl3wTX1qeaw68y6pVWrgrmd2UhNeyZMvLfRGvpvy1N913P+Fytayp2eiXWD5Uhn9Oy1mbWa94f5A/Xj2UeSdT0n7h3deXD/psVMLT2DlfpgMDiY7BVmiBw4NPuZJen1WrsPAKitlrMKPLPRf54NV/4tVXSQ+ed7/dVHiP+eU090fRXrvCRX0RrWTLae/qFe8PMser/IsCXyXVl5HSVaeNSvx3sawBJgiKlqQqC1zC/Ximv9dn1SotOgI6uy2Mjm4NdadLIF59lrKxRf/rSaKDQcvp7U+iU0Y1Oqrw9hZDvNwopFrx/iBrvLovV+1TNrbov7581GmjEp4+7n6sDEoItjx19h4Ij81lKtGdVq3Cool67nxl9O8srP/8R7z6LP7enhEeV4pO+y9r8CA6Z1enoYqOxy1n9XGt4v1Rvnj1uCu5t11KfSn4MQrotFEJ/zCWc/1BgmCgqTT8EH1aJ9Pl2mnVKi3YlMyNPdGx5WX1nx+IV5+EV9ONsZNk8EGPhQ0eBENlpVfdhJcH9p/WoyoV749yxavCL7xN+JiHwfbq77VRiU5f5VpuBCMJrnCp9mK46MOpecpjr1WrsGjumdmTBCdGF9Z/fiBefZKwdmeExSTBQ1nW4EHwXV/V2tfoetMRflAxlYr3R1ni1aH4S5nib84c7ufQa6MS/mUMFmchh1icqTfYE71e89THXqtWacEx35mPRwfHWUe71cWJV5/E1+6MsHQnOBe3sHHbYJypdk1vgj+qEX5RQXWK90cZ4tVDhVGG+Euvqo0W59Jto7L2x6vhZ8EeoWIHHJxuznO77LZqFRYc55v5tQdnIpc7sCVefZSwNjDntmelBGcRir/Ooq5YO1WxfY1uMLKcKlOneH80O17d1bigEz7lAEuPP+u2UYk+zbGwMggBsVJdc+gvWiSz3C67rVqF1WkNY39kuJHEOPHqo/jawCF29QrO4wzXyf0qWDhqHnRw/Hw5c+TB7yDj1oHz4tWh6HYW/yysvnzSbaMSXCy8pNljiAnu1Fd1MDk4fZXldtlt1SosWBTntdXBP7Kcvucb8eqj+NrAIWYaYt3cwtYGxobjqravwemr5fR3VYr3J3Pi1WOZFwifEa4vo+1r8V/PjUp0784Wnw1ait2a6s4vBAfnstwu+61ahcUOfN45Dt6UlzW8/4l49UH8nZ9jDC7HLqFl7Ugc6+zrviU8+jKP8Xrqn9Qo3p9Mj1f7es/cxNceD/ia734bleji3BHWe0NOsaGHyldGcBQqx+2y36pVWHBl06y/EbspL2x4/xPx6oPoKv1RGuFY7VjW3Gysl6rcvva220ZxNYr3J1Pj1b5m5xCvLwNu0t9voxJdHbicyw9CYgPKtR+OCdbJHONi/VatwoJThLNuRLEuYMGPXolXH0VXkQwyeRV8snBZg7ahzWrqTl6Fp0WXM49Yo3h/Mi1eVQ1X8VcwjVJfPum4UQme9xHPOswQCzK1O4TgeEiO22XHVaus4Dme9dXH4tWAKzXCxKsPQufiaIzJq+DxtP6UWcWCTPVNwoLBvfbHKqZG8f5kSryqHK6WV18+6bhRCY6GL3kYFc4IDUbWvy5iz0/nWFXWcdUqrMKeJrF4teQXYohX/4RbtFHuw6GDWdYrs2OdVPX2Nfj4x1Xtz1VM7Q2p0uPVQ/VZ2/BnHHIWs+NGJfrMW5MPB63EBiPr35WCix8yVPCOq1ZhsSOfNbXU5YN9VYlX/wQfGBkmb8e6ilGyYkxoOK7BKqBY3FjOq3cqFO9PUuPVY4NrOFxfhkzZPTcqFZ+Vh2GEBiNbjL/GbpcZbh89V62yYttKzzrFsZO74I0DxavUP/Q0zlYnse92yKHyn8SG4xqMl/T39sayKhTvT9LiVYtwFa8vY84n99yoBF9zveRxVPgmdM22eDYmdsFmaPp6rlplVXgwar0n94149U/oVDyNM8cQ+24X9WRhaBFeixBTfa+Hxmo/1ZoSr9qEq+XVl896vpcG1+YuqhTCH2JPyLaY0w3eLuf/oZ6rVlmxO+asvnq9J/eNePUu3KGNMpu5wngVWu3bZAPm2HKHIZeFnVOheE/4e0eHXaMMu7j68lnP99Lgw1e2DmRNQqMObVa3xC7Y+dPNPVetssSrCsSrd9FHI4ZZu7PCeBU64ibtdewxzzEnLs7oNV41C1cLrC+fdX0vjQ1uLOsxVPhdaAlem6n+2O1yfu/SddUqK3Tk4tUs4tW76FuvhmmB1xevQmsK2gzHxdYnLefhq9Dh1o5XDcNV/NGrYerLZ13fS4PnvtGngxZCgw5tKmZsB+D5t/Kuq1ZZoSMXr2YRr94Ft5caZ+3O+uJVaEOFNsNxwTcLN/lsJYSOtna8avpbj82gDFRfPuv6XhqcOVzMo4/wp9CS2UY7X8WW887fZKzrqlVW6MhnHfqKT+4r8epNsP8dZt/AIVrOzEIJuVEPFdoyfjmbl4WONl9h6f+3Hq0vg64N7PteWu9FOjCI0AxRq5fQxAa7Z2+70XXVKqv8oa/45L4Sr94E78ADPf/cf8uZWaiDbbURfe2tyhurXFr7/60vr7581vW9NJhtF7OzDPwp9DREqwnd2KMasy/YrqtWWeJVeeLVm+iT54O8U/i/EVrOzELPN7X6/mLt9WLeQiZefRGtL6O2+H3fS2PnfkG1EP4QuSKa7fYSe/hq9gXbd9Uqqpd4teQlA+JV0p95Gml9/upeKxzaCanFazyOYi8ZGXVp2Dfi1RfLqy+f9d2oxD7dqDOHkCxUMptVzNjDV7Pbvr6rVlHiVXni1ZvgzhYD7e1We3Ps5iJfYbvvL/YDa/bxMhOvvgjubDFQffms70YlNPKypFoIvwvND7XbZyd0wc5+EL7vqlVU+UOPFd0lLxkQr17FJheG2jY59sDBOFt1/CV0vO2+v1ixWcpYjnj1WXRni4Hqy2d9NyqxpZnDZltIFXm6qWFzEKsnc+f6+65aRZU/9FjRXfKSAfHqVfS9pCM9GhE7olar5bILPXrV7vuLrSa/afb58hKvpnzAserLJ303KsHT3+rjQW2R6fSGTw7EtoKaOxrZd9Uqqpd4teQxLfHqVaz5HSuMxI5o2Ibuq1BBbvdoS+xSG3b24gvx6rPozhajPnrVeaOyttfOwe9CV0TDghkaLJ09Gtl31Sqql3g17i3vb+LVq9hgyVhbD8QOaSkNfejNUi2HSkLfxlIe/xCvPostDR2rvnzSeaMSO/1LWZoLfwjFl4bXQ53RyM6rVknlDz34LpJx9uJOJl6l/JXB9tmLbaYwbkf3ReRgW2bJ0NexlEfhxKvPgvVl3IXonTcqsVooXrESofHklh8wdMHO7fs6r1ollT/04IrsoXrqNOLVq+DGXkNtcxJs6drtDpRV6KfccqRkVaVcvPos9PlGfvSu81937OONe/ohSeSCaPpYTGhAZO7YcOdVq6Ru4tWCVweKV6+Cv4ShhjeD8WohqwNDT8+1fHQuthR5qF/Yz8SrT6Ibk4777XfeqMQWfw81egbTRS6HpnPpVQpK51WrpAqHHvoLSx7UEq9eLDJoBx8tXMh6tMjTLU0PNfaw7kJ2GhGvJny+kW/knTcqsVooXrEOoZ0tmva9sSt25tKbzqtWSf3Eq8U8nvKNePUi+BTeWD+E6G5ly3i2MLKzRdONI3qPAFmJV5/EovVg9eWTzhuV2BewlI1l4HehhqfpXHpsL+eZH7HzqlVShUMPLp9a7vSVePUimETGuv1Gh8wfh5qT+0nkSJuug4wtEBt3c4NPxKtPFllfPum8UYn9QAY+/5AgVJCafsLYFTuzM++8apXUUbw6LKIBPUO8ehHcN3msqYVovBrssM67jBxo23m60HexkA5PvPrkPvT5Rr4QO29UQuVh0a+4hH8iBantXHrsip1ZMTuvWiVVOPTo8qnFbh4oXiX8kdbtebLYQT0tYvPA/lc7xH5kA68P+0i8+mSZ9eWj3huV2BfQ7vNBRd0vpQ9esTMb896rVkEVDj24JP5p6Bvfb8SrF7HXooy2sVfwqJ6eHsafne1/tcOqarl49UnwvQ+D1ZePev9xx76Adp8PKopcDI23FA7VzJmNX+9Vq6AKhx6bgDxZwAD/GeLVi+CPYLAUElyS9LSE2dnIsTbeIzE2Vz7Yb+wH4tUnoY839H2890YlMlw/9BcAYaHGt/FS5VBFmbmct/eqVVCNQw/9iZPDIvOVeHUSfS1NniOqJrz2dQE7Kgyw2mFNL74Srz4KbYPcPP7P0nujEvt8y7j44Hehetn4YqhRUXqvWgXVOPTYmNbJIvOVeHUS3ARitG0HgtvNn4yerwY4xthS5GV0eOJV+scbrr581HujIl7Bm9BIX+OGN/Ym8Hl/o/eqVVCNQ499ha8W+PyVeHUSbH9GW0IXnZQ7Gfv5q9D8QOPVDrFf2TKqjHj1UXCcY7T68lHvjUrsTi9esQahnZIbf8Ya7xXuvWoVVOPQ43tbHN0P3YGeI16dBFfRDbdvcnhvi6PDVeuPO0Poh9w4uXSeAbISrz5aan35oPdGJfYVjFwCISp0tTb+jDXW0vdetQqqcejBRfFvDssYWv5HvDpZavsTfJ3Xm/uL1h94stA73luPTS/zR3aWePVRsL6M/Pb63huV2FewjIsPfhcZd229VDlW08WriaocetL4/rPHZQUs8eokGENat+fJ0iZnn92NGrBGWExe5U0enRCvPgpu4Tlcffmg90YlVgrFK9Ygci2MEa/m9eO9V62Cqhx60sNXJ4/XC1oiKF7F/8aA7U/Sw1cv7lpnkGlCDWzrDxn6Alrf1fIQrz5aan35oPdGpfNfCNQTWrTV+LVXVa7Y3qtWQVUOPWVztTeHQVvQM8Sr+N8Y8ZVECTtjvnsYcfxghMXksW9DvJqg8+Y5WF9afbwcem9UOv+FQD2hi6H1tRB7cEe8mqjOoYfeDf3Nw82oq6g+E69OgktE8xxQTaFHkr453A33iHfkMp75CsL5arwosRPi1UehTzdiffmn90Yl9gtZxspc+FVoUqF1vKrxqHLvVaugOoee+PT/P4tIWOLVSewbH/Ctn4lbt3w41sESVoUfyXwrKubi1UehT/f02Orj5dD7bztWCZuXCCgv9KRy8wYgdMXOGxDpvWoVcbHd7na3sXmluX9ryurAN4+3I6+WPxKvTmJf94j33imrA9/cXw8zgBBqnpp/f6so5jWL97tFxKvmv885uv9tL/8rgJhQvGre21a4YruvWvlst9e73f0+sSGc/WdT9w784v5m5AexxKuj4BzPiPfe5L0DP3u8vRriQazQ77j1s7rBmfLWn3KSRsX7/c+H/lyreHUZOxsj1pd33Tcqy/8KICZ0sYpXbzIdTwMX2+3N7na/nxxyZn+C4DtJfvF4N84w/xfi1VHsLDzdZTqimjbTni38dG53zQvtn4Z4VjdYalp/yrj2xftN3/EqWF+ax/85um9UQp9PvGIFQhdr82mDCjtBdV+1Jtlur45jncENlcoe+uTHUz55vBtyFku8Ogq2P83b8ykmP1v4+fzu+p7FCgWX5t9fLF71PlTTU/F+/0yhP9d5vGr++5yj+0Yl9PnEK1YgFFxaf8ganV/3VStu9lhnoUPP04A+O+x3266b0O/Eq6Mltz95Rg+OHu6uux1BWFK86nKusNfi/Uq8aq37RiU0jT/g7kWQqvdr9UWopMzbD6j7qvWXy3xjnYUOPV8DevRwd9Nlf3SeeHUUfEBpzPYn2+jB0WG/u+pxdiX0dvDmWyENF6/6L96v+o5XwfXn140+XhbdNyrdf0CoZIxLocIVO2ZR2BzHOne5xzpLHXrWBvRkf9vvQP8n4tVRsP3pqO9NkHf04OjxvrtZ2jGe1R0jXo1VvF8sIl61/uJn6b5R6f4DQh2bMS4F8eqT01jnXbmxzlKHnr8BPRlhHku8Olp2+5N/9ODosat5LPFqrlGL9wvxqrXuG5XuPyDUMUDXdyRenVxuj4OdoQ+aX44DCC0tmubxvqcu9JsBLjTxaqaL+ZsH/nzeb/sYQgg9q9v8k8YWodb9mMMX7xPxqrXuG5XuPyDUEaqWD60/pXh1ebW7n/Pi0gxyHEaG3at/d+xCO1tO9UK8Olp4+zP/1QO/Ow4hNF4LO8b3F7vaan3MhRTvk77jVXD4boz15D/ou1EZ4QNCHaFq2X4TzTXHq4vr21Zjnp9kOZirGp+0r+VUL8Sro/vYF9hlQI6o0kTvW66FDX1C8erNoor3Ud/xKniuG326PLptVIb5gFDHTeRKEK9aFYXLm/vS8z1heY6ozPMpZ3S29Zp4Ff4TA996L6tdra2eNwx9OPHqaHnF+z/xqr0uG5WhPiDUEVrOIl61KAoX1/3cnY/yHNWmwjZZ/zze9/HEiniV8CdGvvWGhquy2d/WHkGIbYXUfFijebxaZvH+T7xqr7tGZbgPCHWE4tXDtrXYoptZZ6KvonC5a7xY/7tcR1a97djvrtqvNhOvwn9i6FtvtdnZN493NxUfJQnmltZiKbdUvFpu8Rav2uurUTkjVgIbfkCoo/TD2FXNOhMdVa2L26pTPEG5jq7K41dfPdw2ftWpeBX+E2Pfelt01of7m0oTRrGf8SCKhIBlF2/xqrmOGpXzYj1lww8IdYhXb3qpWpvr7oY+X2Q7wtiuyfntaw7zfyVehf/E2LfeTaPL9/GuxhztouLVdfbTs7lZevFeQrx6bPTp8uilUflRrKccevdGiOhiW6NcKpyJTKf9R5fVFxeF5TvIVvnq6elQpQc9R7wK/4nB259W+eqpxgDCouJV7sWBayjefcer2MRh+2fJ5+ijUflFz+/0horEq7Qzkem0/+C6568j53G2PI776xYJS7w6iiWPsduflvnqOZreFk1Y4tWP1lG8+45XsZMxdn3poVH5lXgFJz3fElLVGFjPdNrPuu5x0f4/OQ/1qu22Wg0Slnh1FPt6xm5/nvNV8PVehZRMWItaTJ6zw1tL8RavWmvfqPxBvIIT8SrtTGQ67Wd0fn/OfOiXrZ9RqJ2wxKuj2Hczdvtz1DqFFEtYrQ8sq3wVYD3FW7xqrXWj8ifxCk7Eq7Qzkem0f7Pt/f6c+9A3t62P53BXs8KLV0exb2bs9uek/fX8cFNi/GBR8SrXSWn/Zf8p16GKV82JVzCGJcWruwpnItNp/+JihK8h90FftW9KHou0oGeJV0exr2Xs9ufFpoNtDgqMH4hX36yreItXrYlXMIYRbg1R82p6w6o1Rs+S/bDbT2Adp7C6emFQnc/yA/Eqqx7mNB5y7z0+RqmKOazojGQ51CPxqjXxCsbQ+hGYnAaNV80fQwoqceg9pPv7KoVevDqKfSNjtz//7Npu4HLyuMs6QTtGmIjJ8TNbXfEWr1oTr2AMsXo0hjHj1U3hs5JN/kP/r4sVgs+32wqlXrw6Cn4fmQ6ouR5WCD4dcgYs8eqT9RVv8ao18QrGEKtHY5h3wbapWo33cE6R+9BfdbHpVvmAJV4dBb+NTAfUgYuFBSzx6oM1Fm/xqjXxCsYQq0djGDBeXfaQLYIyH/o/fQSsws9giVdHwe8i0wF1oY+AdZPpaJYUr25nnotVFm/xqjXxCsYQq0djGC9eNX67bpq8h/7JtodnsG6L7iIoXh3Fvomx259vNl08g5WnnVlSvJqZAdZZvMWr1sQrGEOsHo1h3ps0G1St68InJK+sh/7VxV37ZuVwVfAAxauj2BcxdvtzznUHOyDc5xg+EK/ev9LWHz9Jhq/+hXjVmngFY4jVozHMOxP1q1brG/Tjfn+72223wRe35Dz0MzbX7aewsnSg54lXR7GvYez257zL2+bjBzmGD5YUr2YtmFxr8RavWuvibv0b8QpOYvVoDPPORPWq1egGvd/f73ZX24/VrZeCfbFr/TRDuQks8eoo9i2M3f786Kr5Tgh3s4cPlhSv5jR4qy3e4lVrvdytfyRewUmsHo1h3pmoXbWq3qAf9/vd7ma7Pb9/Q0cF+/K2ccKa+7z7T8Sro9h3MHb784vNdeOE9ThvAbV49Wq9xVu8aq2ju/V54hWcxOrREB7mnYnKVavGDXq/vzuOdf7ZUvVVsC9vmz6osi+zQFC8Ogp+BZkOqEfPCavlKsHD9byPL14drbh4i1et9XW3PkO8gpNYPRrCzKJZt2pdFuuxHo5jndfbbUJK6K5gX9w0HOV/KJKvxKuj2Dcwdvvzt6uWU7Tz8tWS4tXkVzGsuXiLV611d7f+SryCk1g9GsJI8WqT+QZ9OI11bv8e62x/6FFXzSaxiuQr8eoo9gWM3f6EXNw0m8Sala+WFK+mnoNVF2/xqrUu79YfiVdwEqtHQ7ifdyaqVq08m+Q9HB90vt7OLlS9FuzN9V2TiFUiX4lXR7HzP3b7E3a52zeJWHPylXi18uItXrXW6936nXgFJ623astoZkmvWbVmNin7u93VDw86T9Jzwd5c3dbfsH3mY3zniFdHsdM/dvuT5PLmvn4JnrE9pni18uItXrXW8936RLyCk/bvGspmnHh1Of0g97urjLfmV90X7G3tJvQu/yGE/m72P5uiQryK/dLGbn+SXdQeQThM3z9wQfFq4q9s5cVbvGqt+7u1eAUn4lXamchy0ieueHu4LVSSui/YR5vt7r7eUsGZG6x9J16F/8TTIdMBjeTy+rbeUsHpq1/Fq6nFe7eM4t13vIp9OeJVUeIVnCwoXs18I2y9qnUz5egebvIPfL7pvmD/s63Uhc4Y4P/hg4f+bOY/mqabeNXHT62Bi1pDCJNnZ1cfryadgAUV777j1RqGb7q/W4tXcLKgeDXzeq1WtaZsPHWXu9v/pPuC/cVme3O7L7xaMPfjV+JV+E+rCuHgAAAgAElEQVT09FNr4fJqd1+6Lk8di1pQvJoUMVdfvJcQr8auL93frcUrOBGv0s5EhlN+l3pgh12ZN92+675gn7e9Lrn12k3mD9v/ORavenKx3RXcN/NxYklZULyaFAFWX7zFq9a6v1uLV3AiXqWdifln/CL1uG4L358HKNi/2Gxv7or8iA95T7t4Ff4Tvf7UWri82pWZp53YAE9a2NynKWdA8RavWuv+bi1ewcmC4lWVMzH/jCeOf+7Lrdp/133B/tOxC809kZV390DxKvwn+v6pNXAcQsg+kTWtrsR+xkOYEgEUb/Gqte7v1uIVnMSu1TVcCpWqVtr45yHzErXzui/YMReZM1bW3ki8OrqPnfniQ/4jypyxpo0e9N1dl6Z4d/4DEK86OETxCk5cCm8qVa2k8c/Hog9Fv+u+YCe4vL7N1YRmnb4Sr46Cj+6sod5Mcnw7Qa4RhEmjB31316Up3p3/AG5jX02db6aQ7u/Weko4cSm8qVO1NqG/8mr662nSdF+wU213WRa95py+Eq+OxKsMLq7vcjyONWn0oO/uujDFu/cfwBrqS/d3az0lnLgU3tSpWik7b+V9+OcX3RfsKTJErJxfgHh1tIb2p4ocEWvK6EHsZzz2e1t/pHiLV+11f7fWU8KJS+FNnaqV0BNVu0H3X7Cn2s5bKJhz80Dx6mgN7U81F9fzFgqW2zpvofFK8Rav2uv+bq2nhBOXwpsqVSth461ai0v+G6Bgz/Dcg8bP+VfX+T6HeHUU3Nd7oYvLCtjeTp/EepzyB0P/8jLjleL930LiVca6Xl/3d2s9JZzEquXQ5SioStWKPxs99b2fU3RfsOfZTE5YD/k+hHh1FOxQxasEl5MT1tWEvxb6h5cZrxTv/3qPV1ex72fo+tL93Vq8gpO+q2VNVapWfDFPzc2Nui/Ys22upz2IlW9zC/HqSLwq4vJ20irBKSvYQv/wMuOV4v1f7w3DGupL93dr8QpO+q6WNdWoWsHBtdpnvPuCncPFlBY035trxKujYPtT78mVxZgyfnCY8HdCM2WLjFeK91HfDYN4lf0LTydewcnl8stRUI2qFV5eknFVWkD3BTuT6+RVVPm+B/HqKFZultmel3aR9FamkwmrAyv8SDqleB8tIl4N/fvs/m4tXsGL0KUgXuWpWuH2vm7t6b5gZ5McsLKtDhSvTmJnfej2p53kgDVhljD0I5m0aUbvFO+jvuPVGupL93dr8QpehC4F8SpL1QqO3T893Wc6pqDuC3Y+m5R31zxl3NRFvDqJnfVFtuc1bNNeRDDhPK+oVnwWLt6VV7aKVx/FvqK684uZdX8FilfwInQpDD3aE1ShagW3pc65o0JI9wU7p8ukCaxsQVe8Ogme9jwHtEa3wTP8In0PhljvVODAWlO8TxYRr4b+fXZ/txav4MV619J/UaFqRfcHr/1kf/cFO6tNyiYAU57+P0u8iv+N5fzWGrhO2cElfeuW1cYrxfuk83gVnL1t9fFy6P5uLV7BC/HqVYWqFW18alee7gt2ZimPqOTaY1m8iv+NujtbL81lQr5Kn5yN9U6VZ3BqULxPOo9Xwfoy8u+z+7u1eAUvQoNya3gWonzViq7er74yvPuCnVvCa4ZzPXwlXsX/hnvvLOGnhKYU9tjveHnfn+L9YhnxauTfZ/d3a/EKXqx2scdX5avWdegv5HzZUlD3BTu3TXwHgFxrfcSrk+DOItl2FFmlaKF5mjCMv9Z4pXi/6DxeBR89nPBGgm50f7cWr+CFePWqfNWKPnW+yXVIUd0X7Owuwguoco1Gi1cnwXi1hq1KC4rvb5HcZ16E/tnlxWPF+0Xn8WoF9aX7u7V4BS9i76JfwbMQ5atWcOFC/Qfdui/Y+YX3Act12LG2pHpz9lGNeBWcBLjNc0RrtQnvjpneZxb6Z3uneL/oPF4F6/rI9aX7u7V4BS/Wutjjm/JVKzhjUn15Sf8Fu4Dw9oGZRhYGuM5qxKvYaVjFXjolBU/zlL0tQlVsefFK8X7RebxaQX3p/m4tXsGL2GKPkdcqBxWvWpvQH2gxU9h9wS4g/Px/pp++eHUSbH/WsJdOUdHNW9LXvq5zq1nF+9Uy4tXI7xXu/m4tXsGr0LWwvNHIb4pXrWDlz/ampbjuC3YJ0d3ZM/30xasXwbOe5YBWLDZqNuVErzNeKd6vOo9X0Rjc6vNl0P3dWryCV6FVDyOvVQ4qXrWCy8LTl+vM1n3BLiG6firT1oHi1YvgWR/5xTRdiC5+TT7R69wLSfF+1Xm8WkF96f5uLV7Bq3WORn5XvGr1u6lR9wW7iODm7Jl++uLVi+BZd/OdKbZl0YQTvc54pXi/6j1eBTd1Gbi+dH+3Fq/glfcKvyhetYKPQzQoO90X7CKCm9hl+umLVwl/ZBWrkQsL9pnJW6gP8EMuQPF+1Xu8CtaX+luQZNP93Vq8glfrHI38rnjVChb+BssWui/YRdRdph/7a8uPV8H3B61gNXJhwROd3AjH+uul7YWkeL/qPV4FH6kduL50f7cWr+BVbBB/+S++Kl61gsuish1QXPcFu4zgF5LpXVShv7X8eBVcZbWC1ciFBVcHpveZoX92abOPwbnABp9MvPpk+fWl+7u1eAWv1jka+V3xqhX695tsGdt9wS4jeCfOdB+o+bemqRKvgl1/gy3YliZ2otO/z9BeSA32eCgqdjJXULx7j1fBJd8D15fu79biFbyKrVpa2mjkd53EqxbDat0X7DKCewfWjFdNRzGqxKvoho0Db+3VidhVnf59hv7dkV8sdE7sR7uC4t17vIrWl0xrEhro/m4tXsGb0MWwtNHI70pXreCjPi0WhXdfsAuJfSOZIk/obzUdxaizh2jspLv7zhbrctJzUOzplgIH1FDwNWIrKN69x6voE7Xj1pfu79biFbwJXa7L3zqwdNUKDqu1uDF1X7ALiT18lekb6fbbf1cnXoXWlq1hury04DLM5H831j0t62FdxftN7/EqOnwzbn3p/m4tXsGb2GjkuJPpQeJVsUPvVWy3ZfHqo9nxKrgH2/Kny0u7jJ3o5H83VsiSN3zvmuL9pvt4tfj60v3dWryCN66Gk07iVYsXcnRfsAuJ/fLFq49mx6vgzsnLny4vLnaik//Z2EK5gXe+PkPxftN9vFp8fen+bq2hhDfdF8w6OolXLapO9wW7kNguU+LVR7PjVXC/RntbzBbbTDz93w39s8va20LxftN9txCtL8Mux+n+bi1ewZvYaOS4k+lBpatW8FGIFdyhuxFrFTL98mv+rWnqxKvo1l7LfxVEabHLOv0hqRWWC8X7TffxavH1pfvLT7yCd6GHzQd+UURM6apV9y1LSbov2IXE7sSZdluu+bemqROvgpuwLWx1WQuxyzq94NwW+nc7pni/6T5eRevLsMtxur9bi1fwrtQo51jEq2KH3qvYJr6ZIk9oEGMF8Sq6deCyVpe1UCoG3YT+3WHb13MU7zfdx6vo1oFNS+0c3d+txSt4F7scWjy2W5N4VezQuxU67kz34Urhpf9PGNzaa9yHI3pRqs2pOunbB8X7Tf/xKlpfGn7EWbq/W4tX8C62sHzpD1+JV8UOvVuh464Zr5ouwa0Ur2KTKgM/HNGLYm1O7PtbUjxWvN/0H6+CWwcO2993f7cWr+BdcLVy649ZmHi1vu8/dNw141XTk1wpXsX2a/Tw1WzF2pzY67iXFI8V7zf9x6vY2tVx60v3NxLxCv6JPQ2xpNvlGeJVsUPvVui4xau8ZyP4utuB30zTiWJtTmz+8S7/ETWjeL/pP15Ftw4c9eHO7m8k4hX8E7tgRx3tCeokXl3nO6Kw7gt2KaHjrhqvWr7tqdbTYaET0fhcLEGxNic2/7ikeKx4v+k/Xi29vnR/txav4J/Y9bCk2+UZncSrFjem7gt2KaHjzhSv+r/p1IpX0WfPl76ZTmnFfnHB+ccF7TWreL8ZIF7F1q62CcMZdH+37v9OB/UEp9MXdLs8o3TVCp7kFdyh+xE6bvEq89mI7m2xqL3nGij3i4utJl/QcgfF+80A8SpaXwbdrKv7u3X/dzqoKFaOFnS7PEO8KnbovYrt6ZLpLtz/6w9qxavo3haL2nuugdgWalOWSN2H/uUFLXdQvN8MEK8WXl+6v1uLV/BB7Iptumt0cZ3EqxZDat0X7EKqtgr9v4y1VrwK7lQ67OqdXpS7rIObsy1nMyTF+80A8Wrh9aX7u7V4BR8El5Yv53Z5RifxqsWKqO4LdiFVW4XYH2s5Q1ztxcePoVMx7t5enSh3WQcfvlrO3oGK95sB4lVw7eqoq4+7v1uLV/BBx4Nz1XQSr1qsqOm+YBdSdUIp9v23vONXi1fRF3+OurdXJ2LneNI/HWxgx1x9dUaweLcYDxCvvomtXX0atL50f7cWr+CjJZejoNJVaxM8x/mOKKz7gl1I7BnoTI9DxUb8VxGvoi/+bNylDS5WcKat+A42sIvZ+1HxfjNCvFp2fen+bi1ewUfBvZKXvLlF8aoVO8UtImz3BbuQ2HHnug/Evv5Mf2yKavEq+mLhJW2OUF/J6dLg7gHL+f6CP9jlF+8R4tWy60v3d2vxCj4KjvccFrPa47te4lWDstN9wS4ktsSpbrxqeIVVi1fhh68Gffi8D7GaPu37jO4esJjvL3i8yy/eI8Sr8MNXQz5N3v3dWryCj6LjPUPOpscUr1rBtx02OMXdF+wygj1irhHpWKZoeNepF6/CD1+N+fB5H2IneeL2E8GAvJjvT/F+NUS8Cj98NeLvs/u7tXgFnwRvlwuevipetYILMBtst9V9wS4juMIp15+LneWG4/314lX4zTRuwtPFSvrERjj66talfH+K96sh4tWi60v3d2vxCj6J3i6XO31VvGoFh9Qa7D7VfcEuIza8n219fuz7b3iB1YtX0Z0Cxhxe7kNwQcLEOB/cSm8x35/i/WqIeBV+89WImyF3f7cWr+CTq2A5Wu70VfGqFXy5WIOnb7ov2GXEVuhnaxBj33/D+329eBVda/XkLjxZ8HHaqec3+njLiE+3nKF4vxoiXi26vnR/txav4LPo7bJ14SymeNWKbhdbvyHpvmAXERxRyLZbZuyu03Azq4rxKtqtLmf6o7pghzk1D0Qfnxtyc7bvFO9XY8Sr6GKcEetL93dr8Qo+W/2rPotXreh6mvq733dfsIsI/uKzvbsn+P3n+nPpKsar8NbJbsMTBddHTXvt1X/x5Q7NO+08FO9XY8SrJdeX7u/W4hV8Fr5djjfcE1O8akUXhNdfv999wS4h+nVkuw0EO7R2t52K8Sq+NftSpj9qCw4eTP86o8sdDosYj1O8X40Rr5ZcX7q/W4tX8EX4XRGLeZfJZ+WrVvQEV+9Hui/YJdR/miL297LNliWrGa/iq3fat2oj2gTL+fTZlvByhwF3DzgjerRLL96DxKsF15fu79biFXwRvl0uYzjym/JVK7i5b/0Gu/uCXUC0/8w4uBn7i+260ZrxKmH1ztNlnj+5KtHBg+ljZdHlcgsZj1O8XwwSr8KLcZ6Gqy/d363FK/gi3vAsc3lg+aoVHVGrvsCk+4JdQLT/zPgmm9hpnvw0TJ3Pl+vij6/eeXpY7G6lxUQHD+ZMtoS/wUWMxyneLwaJV0n1pfVnTdP93Vq8gq/iBal98SygfNWK7j5VfTit+4KdX/jNKBlHo4Pzw80GU6vGq4TVOy1e1jq46FKEOVk+vvvjYP3rWYr3i1Hi1XLrS/d3a/EKvgrfQBbzMpNPylet8HKa2uW++4KdX3StT85uKdiPNnv4qmq8Slkd2PB5tDGFK82clajxd7cO1r+epXi/GCVeJdWXoZavdn+3Fq/gq028HB0GW64cUaFqhU9v5dVQsUNfwhKfN+GR95xL9YIdWrO1t1XjVcKbP58G63+aCy8NnJdbw0MUi8jH0UNdePEeJV6lrA4cq76IVzCe8OYWi8xXFapWuB+pfHeKfa4F1cP4Y/k5x6Kjw/2tHjWqG6+uw9/B0Uj9T3Px3DOr607ZPmD870/xPhkmXiUsxnkaansL8QrGE286l/i4eYWqFZ8zqXt2Y4fewS0zk8vw6H7etjD4Z1u1onXjVcJkecuTMqD4MNnMbTFTJgiG//4U75Nh4lVafTmM8/sUr2BAKet1Hgca7wmpULXiw73TX0czRezQl/H+mv+S0lXemaTgAHirnQDqxquUyfKjcfqfxhLO68wyE9/cYgHfn+J9Mky8Wmx9Ea9gQEnrdZa2PrBG1Yqf3Yon9/I2Fjfa7RieV0q6yhspo+1ooztP5XiV9PD50yL2R6ghpaucWWXiz3gdjf78VbXTmqJ68R4nXqUsxjmqm4qnE69gREmPgw40nx5Ro2rFH4qotb/BxS7+nS9jv8iUdJV5SDM6AN5oc4vK8Spla4SThyVtrlJKSrqa/crstAmCwfOx4n00TrxK2zzn+LWNUV/EKxhR2uOgw4z3hNSoWgnnt8YN6uIm6Q60iNdJp/3E8z5GEd7Kus2tp3a8Stvc4tlhGQG/oIukC3p2/U7Ym/1o7HyseB8NFK8WWl/EKxhR2mqP5/vlghYI1qhaKe1I6fKzuU4d3Rtpe6UfbO6TDjj342bRy+uxycYxteNV2mT5y18fukEv7iqtfs+/nhOfbxmjf/1BSvEuXSknFO9MV85A8WpCfbkfoL6IVzCkpIeVj/qoozlUqVoJN8VDyUq/uU7LGS+Gn766SRw+yN0Nhk96k3VU1eNV8vDys93itizN5iJxtWWGLVQSp6/G6F9/onj/N1a8SlyMc3Tov76IVzCk1Omrp6fHpVwmVapWSsEvtvf9tNvz0by4cbm/2101nAHbpo5mzn425av4199iH4Dq8WrC8HLHDdDtfnezbffZNrepZzLHg4WJ01fHry/DX21j1cX7zUjxKr2beXa46bS+vBGvYEwTBnz2y7hQqlStpNHeIrfoi5upt+enuYOyrzs7PO5vd9v6KesqdSeFAhknYbO8BvvG1I9XU6avug1Yr1lxf7+7rp+yLnbJrWSWzeSSp6+er/9Rt0RadfF+M1K8Sl+M83Ki+qwvb8QrGNSUAeVFBKw6VStpyXz2R9sub5OX7H/5RHNuPJ/L7uNxLqvWD2dzPeF3XeD9oAk9cP19Y+rHq0nV5uiuw4rz5Twd57JqrYS7TJ5EesrVAifPmT2NG7DSinfuL79t8X4zVLyaNH11dNfxY8biFQwq/vbEj/aD3jA/qFO10sbrDxlr0MX1/dSbzQdzbtHny+7+/rkPLXs3295NOvICPUJKG1x9G4cG8Wra9NXR401vT/Gc/5j7291V2cmsTdoWcm8yDR5M62Afd719exFrLt5vhopXi6ovb8QrGFX6GqqTQ6MBn22uIeI6VSu1G8lzn7q4vps6T/DVjEHZX8vuoVTMurqdeOgFJq8SX9xd+QGsBvFq8vTV0cNt/p/L5XZ7vdvd7vfpx/n7Zy0Us6YvF8vVAU9YTn5y32ZE7mI7va9bc/F+M1a8mldfdl3VlzfiFYwq4fmQLx5vq10yF9ur3e5+fxq2zVTKK1Wt1GU8D3PP6WW+u/PJ9EHZ2Dqi/X733IjmubFdznlWoUSLsEn7CHVXUbWIV7Fu7UeH+5vZv5R/Hc+nfzr1n4l9tcclsTfbPDlrM3nk4Cnn4MHkJWuH++taD7lsttub3d3rNzz9n1lx8X4zWLxaTn15J17BsKaspn+Toxz94PkOebZM5XpIpVLVSn8WfPpexhdXu32GNSVf3U5sihLnRffPnehu8uTk5fOxzzrKMu+eSu1FDxNmaC62x2bydKUkxbMW8Sq+V/0vH+n2OvEkvZygu2+l5KPU239iI/d4HEa4njqVstnezOy7882MzupgH26vSkWs57b2ancchPtaA6f/kysu3m8Gi1dTF+N8tN9Nri+/lPvJPwzxCoa1mTte9tzuZLh2nkvU6fa42//aBWVr+GpVrQlPod+nn87nJFri5vziMG1SZfKd7mG/vz31opG73OXzne1+5kPgR2UmjiYspXr8swN9zVPHK+XLgSe1OU3i1UWmX+nj/pjFfz5RkY7nk8Lx6p/Dfn+/O374yJzW5rkm3ma4snO+c2DOeNzRw90uwwrv40WwPd4vjqn511vYjD8yYTBgIcX7/bOF/kg/8SpXfXloXV/eiVcwrpkT6i+Oz9IcW4bf/9Tpnrh97Q5fhhr/CFPfDRavJp3dx/AkxsXzqfy9u8hh0qq1DAOJT6du9KUfPfn44/mrrUpS6BXKEzayPno87vb97yfwOpN7ulx+/f/dp3y2JvFq8rM7Pzj+PO5efg/XqR3PJ9Xi1WcPx5/37e79CF7HmP6aa0uVs7mZPR538rIo+K+c9Xa/+HBSvs1O/WXGoa63eKedgX7i1cTN2X/0ub681OAq9eWdeAUDmzsc+d2paUi/EYYMFq8m7x1yf/NLRbo4lvq78rfmfx8nfdVahimlekqtcZ3bIj8k/QNJ10abeJUpdWeXevuftuVqI0mx+0+ZkuUHj6/3iyL1bM6hrrZ4vxkuXvV62xGvYI3yDEfWMlq8mr53yLHtOM7b3LxOXrzN9xVbSPLHh0ncyqTNp5ymWH8wfavgKUaIV7mW72SWevvPPEpeVO5NMfOPx5U050hXW7zfjBev5nxlBYlXsEqdVqTzRotXU56+6tXhfhffBa31h01QaGngfzPedDnJIeWjNYpXuZcHZpK698NI8Sp3a7PpdIbgvFnPea21eL8ZL151Wl+uph6OeAVD67MinTdcvOp0uH6y464CkeNu/TnjDgVfKVm3P0v5ZK3iVY7dA/NL7RAHileZ9lr94HKkkjarsVtr8X4zYLxaRn15J17B2LqsSOcNF69G6sSiAked+M6nliaPLAZM3NxiopRP1ixedTn5kdr+jLNA7qHAV1h3zes88xq7dRbvdyPGqy4fdhCvYKW67Hh+kOeIa1atHsv9PIGDzv8AfCllm4OqWzmkPMLeLF51OfmR+iPodIeO73I/ePVinHQ5t7FbZfF+N2K8WkR9eSdeweAGWgSR54BrVq1xkkZQ5BmfYQ76Ls+X3MV5SLmJtYtXPW67t9R4dSi0J+Y46x1mNnbD1LGopAc0h4xXPU6uilewWj2O+JyX53irVq2BxnpDIk33KG1JibVTn9RsxAeJVx32P6l7l48Sr0otfB1nvcPcxm6NxfvdmPGqw/oiXsF6dTiifF6ew61btYbpRWIWFK8eiqydanUiUt4g2jJe9fdIS+qBDnJFz3ml7O+GyVezG7tRDjRoDfGqvx0fJxdS8QrG19+Iz3l5jrZu1RpnbjAkcq/oroE+q3y6qjrRkdLnNI1X3fU/qQfa+vPGlEtX4+Sr2Y3dCov3u1Hj1fD15Z14BQswSL7Kc7CVq9Yg5zZoMfGqRrqquXngOPGqt/5nkfGqZLoaJl/N7/3XV7zfDRuvRq8v78QrWIIxbiN5jrV21VrUCv7IgyojxKt9jXRV81SkbNPROF519gNZYLw6lE1Xo+SrDL3/oop30lY+48arzvKVeAXrNsQyiDzvgK1etfqq9vNEbqd9dc9nFd4z8J9qbWjKTbx1vOprNOcx8cO3/rx/K7Vn4AdD5Kscvf/aive7geNVX/VFvIKVGyFf5blQq1etzlqRuznfdOR22v/WajcZv93fXdY6pKHi1X9XPVWbtI/e/8YtD3mGoX63GWB/9hy9/9qK97uR49XI9eUf8QoWorP7yDmDxqueTu1hd/Hf5YyPs4R4dahZ8G8qHVTKLvPt49Ws32BuaZ+8+3h1V2fd6wDr5rL0/isr3u+Gjlf/XXb0TuipxyBewWJ0vw5i1HjVzS364Xrux1lAvKr02NWbWldVwkfqIF71NPuR9sE7j1fFH7v657qnKYJz8vT+6yre78aOV+PWl3/EK1iO3u+Xw8arLm7Rh7v3RzKm33sizVvX8epQb2Hgq0pffcIn6iFe/fffTS/VJu1j9x2v9jUWBr7paQrynEy9/6qK97vB41W9dQN/mnoA4hUsSOf3y3Hj1X+b1pnj4frTpM3UlT2RryDr586savv5olJ3ljAn10e86qbapM1m9rxxS+2xg03fCwQj25yGDnNFxfvd8PGqm/oy9fOLV7AoPTcPI8ertksvP4x9vpn48O/Y8ariyqkP6uSrhIujk3j1XG26mMBKKysdV8j7+mMH246ecfkm3094PcX73zcb+id7jle9XKtT9/EUr2BZLluP1P3iKssRtqpazRYr3J8NFReTmv6h49Vt3aeu3lXJVyPGq/8uenhCYiHx6rFJH9PzBFbGn/Bqive7JcSr/y566GamXpfiFSxNv09g5anlzapWk92MHm5+zBRTGsWB49Vd/bH9N5sKo98JYw/9xKsupj8WEa8em0zMHvU7IJfzJ7yW4v1uEfFqwPryj3gFi7PptIMYPV7V383o4ebXSDGhMQpElD6f/d+3rfLlR78TLo6e4tV//123boDSfhldhonDrtHE7Enzb/AHWX/C6yje/ywkXnXw6xSvgHcXfe7RPnq8qvu6wz9uzyfJM5WBY+wxXn1/fKG24qOow8ar5g1Q2prjDuPV43XLcHXUx0N0X2X+Ca+heP+zmHjVvL6IV8AHXQas8eNVlWViR5Hb8+nzJDZGgX+yu3h1uG23LPCf0g+pDByvGjdAaWWlu3i1b7Ys8IPNrvUcwRm5f8IrKN7/LCheNa4vU69P8QoW6qK/EckFxKvn21bx/uxwnzKanXaPDv2Tl1e7+042xf22qXFDZSewEnrJ/uLV88lpt8lFYlnZbG9u973UxjPbyrXSfBHWNw/Zj7FC8b5rXLzfDzX0Tw4Sr0aqL+/EK1iszXU3PfLzbWd/vxt6Y/Z/irbZD+lnKeUenfDP9hCyHm+76T6PSu4aM3i8+u+/i5tG/fmk9qeLkHV+W7lmtj0teXjY70q8BexqHcV7cfHqOF48Un35r4NG5S/iFcxwedu6g3i+Td7urnJeoh1UrcZg+iAAAAavSURBVKsyg6CPd1fTZmrCQfox+Z9uGLIe77qr7KnLeRIMH6/+O5ab6h3QvFGbliHr/udt5ZrZ3LQeUHk67O9219uCp2bY4p02mbe4ePXs8q76tTqjvnTQqPxOvIJ5ruqXpJPH022ywFMzXVSt7AO9D7fXs85V7M4ztee+2O7u6rahD33NW/1TbA1V/CN0G6/+q5iwjrMbubrw7fVuXzVXpK3/reqifkR+OSXPjezNtspFv4rivcR49Wxb6+e5389N+V00Kr8Rr2C2aiXp6Lks7a5Kjj5ebiPK/f1X+QZ6D/tdlvMVCNLzeu7Ncxt6X2FrgMe7ed1KYdv8AxaH/W3CSqjQFdAunV7c3JdM4s9teJnZjcvt7nZfoVLuM62SLubipuL+Hw+nYbjKv9YVFO9N6DbZc539yeVNyeewDtnqSyeNys8uQh+w13Eg6MXF9V3RxuFwTFXV75KNXcy+ST/fnK9y3uG2t79/oixTGpvt1e6uVB86dyC4jutsAeJh9iBpl7a77BHruMq4Rjdyub3Z7Qvli0OuB1BL21z9UUnm2j+nqpuWzeVKi/dCFKkvuyr1BViei6vbzF3DwzFU3ax5gGMzNbYeHzEoct42v33LWe/QF9vr3W3GRnR/ezPQ3W1u//l4TAuLHo64uNplWFB6GrhpUWK2293uPt8owuN93ma8vM1zD5t3EOVx//yj33UzZ7Lm4r0AWetL64MBhvdck+at79qfbpHX3dwj20sr8/kWH/xie33+if3bIn/t8jlnPf+qJseN02M0A/6cNlPu7y/PmAx4tNNsjnNBE34ZD8+naXfVw3naHHPW7X5yJ3fsxbPu7VPV7M0/Ho7zVMcxuD6HElZfvAc3tb7sj/VFEwPkdlzf9dwQ/52zDvuj3e4UqFY8S/Wnl+eSfqzz+xbjtscvef9p/L30k8zHBf/Pv5W758P965Z32L9OfRb+SKUFd/14fFk9u9bb+Smj3P3+qzh0P3JzuT0OJOyOJfGvb/wlVXSRD3M4rpi82wfm8h72L9/i8cruNFF9p3iPbhn1BVgWTzRm9e2R4h56jLenbKvfV84/3rvA39bFe6786H7X8cB9M3094D3D+e0DFv5t//DE/iJaVsV7CRZTXwAAAAAAAAAAAAAAAAAAAAAAAAAAAAAAAAAAAAAAAAAAAAAAAAAAAAAAAAAAAAAAAAAAAAAAAAAAAAAAAAAAAAAAAAAAAAAAAAAAAAAAAAAAAAAAAAAAAAAAAAAAAAAAAAAAAAAAAAAAAAAAAAAAAAAAAAAAAAAAAAAAAAAAAAAAAAAAAAAAAAAAAAAAAAAAAAAAAAAAAAAAAAAAAAAAAAAAAAAAAAAAAAAAAAAAAAAAAAAAAAAAAAAAAAAAAAAAAAAAAAAAAAAAAAAAAAAAAAAAAAAAAAAAAAAAAAAAAAAAAAAAAAAAAAAAAAAAAAAAAAAAAAAAAAAAAAAAAAAAAAAAAAAAAAAAAAAAAAAAAAAAAAAAAAAAAAAAAAAAAAAAAAAAAAAAAAAAAAAAAAAAAAAAAAAAAAAAAAAAAAAAAAAAAAAAAAAAAAAAAAAAAAAAAAAAAAAAAAAAAAAAAAAAAAAAAAAAAAAAAAAAAAAAAAAAAAAAAAAAAAAAAAAAAAAAAAAAAAAAAAAAAAAAAAAAAAAAAAAAAAAAAAAAAAAAAAAAAAAAAAAAAAAAAAAAAAAAAAAAAAAAAAAAAAAAAAAAAAAAAAAAAAAAAAAAAAAAAAAAAAAAAAAAAAAAAAAAAAAAAAAAAAAAAAAAAAAAAAAAAAAAAAAAAAAAAAAAAAAAAAAAAAAAAAAAAAAAAAAAAAAAAAAAAAAAAAAAAAAAAAAAAAAAAAAAAAAAAAAAAAAAAAAAAAAAAAAAAAAAAAAAAAAAAAAAAAAAAAAAAAAAAAAAAAAAAAAAAAAAAAAAAAAAAAAAAAAAAAAAAAAAAAAAAAAAAAAAAAAAAAAAAAAAAAAAAAAAAAAAAAAAAAAAAAAAAAAAAAAAAAAAAAAAAAAAAAAAAAAAAAAAAAAAAAAAAAAAAAAAAAAAAAAAAAAAAAAAAAAAAAAAAAAAAAAAAAAAAAAAAAAAAAAAAAAAAAAAAAAAAAAAAAAAAAAAAAAAAAAAAAAAAAAAAAAAAAAAAAAAAAAAAAAAAAAAAAAAAAAAAAAAAAAAAAAAAAAAAAAAAAAAAAAAAAAAAAAAAAAAAAAAAAAAAAAAAAAAAAAAAAAAAAAAAID/24NDAgAAAABB/187wwIAAAAAAAAAAAAAAAAAAAAAAACrADVQu7PNNe3YAAAAAElFTkSuQmCC;" parent="1" vertex="1">
          <mxGeometry x="880" y="1040" width="145.24" height="75.59" as="geometry" />
        </mxCell>
        <mxCell id="K2tW0F9EPkzHcLvSDQwU-6" value="" style="endArrow=classic;startArrow=classic;html=1;rounded=0;strokeWidth=3;fillColor=#dae8fc;strokeColor=#6c8ebf;entryX=0.75;entryY=1;entryDx=0;entryDy=0;" parent="1" source="K2tW0F9EPkzHcLvSDQwU-5" edge="1">
          <mxGeometry width="50" height="50" relative="1" as="geometry">
            <mxPoint x="949.9999999999999" y="894.19" as="sourcePoint" />
            <mxPoint x="952.38" y="730" as="targetPoint" />
          </mxGeometry>
        </mxCell>
        <mxCell id="K2tW0F9EPkzHcLvSDQwU-7" value="" style="endArrow=classic;startArrow=classic;html=1;rounded=0;strokeWidth=3;fillColor=#dae8fc;strokeColor=#6c8ebf;exitX=0.5;exitY=0;exitDx=0;exitDy=0;entryX=0.5;entryY=1;entryDx=0;entryDy=0;" parent="1" source="K2tW0F9EPkzHcLvSDQwU-1" target="io0zbL7cQPA-m2ZbIYGQ-21" edge="1">
          <mxGeometry width="50" height="50" relative="1" as="geometry">
            <mxPoint x="414.0049999999999" y="894.1899999999998" as="sourcePoint" />
            <mxPoint x="919.01" y="745.8" as="targetPoint" />
            <Array as="points">
              <mxPoint x="900" y="880" />
            </Array>
          </mxGeometry>
        </mxCell>
        <mxCell id="K2tW0F9EPkzHcLvSDQwU-8" value="" style="endArrow=classic;startArrow=classic;html=1;rounded=0;strokeWidth=3;fillColor=#dae8fc;strokeColor=#6c8ebf;entryX=0.75;entryY=1;entryDx=0;entryDy=0;" parent="1" edge="1">
          <mxGeometry width="50" height="50" relative="1" as="geometry">
            <mxPoint x="419" y="880" as="sourcePoint" />
            <mxPoint x="421.18999999999994" y="730" as="targetPoint" />
          </mxGeometry>
        </mxCell>
        <mxCell id="K2tW0F9EPkzHcLvSDQwU-9" value="" style="endArrow=classic;startArrow=classic;html=1;rounded=0;strokeWidth=3;fillColor=#dae8fc;strokeColor=#6c8ebf;entryX=0.5;entryY=1;entryDx=0;entryDy=0;exitX=0.5;exitY=0;exitDx=0;exitDy=0;" parent="1" source="K2tW0F9EPkzHcLvSDQwU-1" target="io0zbL7cQPA-m2ZbIYGQ-22" edge="1">
          <mxGeometry width="50" height="50" relative="1" as="geometry">
            <mxPoint x="429" y="890" as="sourcePoint" />
            <mxPoint x="431.18999999999994" y="740" as="targetPoint" />
          </mxGeometry>
        </mxCell>
        <mxCell id="K2tW0F9EPkzHcLvSDQwU-10" value="" style="endArrow=classic;startArrow=classic;html=1;rounded=0;strokeWidth=3;fillColor=#dae8fc;strokeColor=#6c8ebf;entryX=0.5;entryY=1;entryDx=0;entryDy=0;exitX=0.5;exitY=0;exitDx=0;exitDy=0;" parent="1" source="K2tW0F9EPkzHcLvSDQwU-1" target="io0zbL7cQPA-m2ZbIYGQ-19" edge="1">
          <mxGeometry width="50" height="50" relative="1" as="geometry">
            <mxPoint x="439" y="900" as="sourcePoint" />
            <mxPoint x="441.18999999999994" y="750" as="targetPoint" />
          </mxGeometry>
        </mxCell>
        <mxCell id="K2tW0F9EPkzHcLvSDQwU-11" value="" style="endArrow=classic;startArrow=classic;html=1;rounded=0;strokeWidth=3;fillColor=#dae8fc;strokeColor=#6c8ebf;entryX=0;entryY=1;entryDx=0;entryDy=0;" parent="1" target="io0zbL7cQPA-m2ZbIYGQ-20" edge="1">
          <mxGeometry width="50" height="50" relative="1" as="geometry">
            <mxPoint x="420" y="880" as="sourcePoint" />
            <mxPoint x="590" y="740" as="targetPoint" />
          </mxGeometry>
        </mxCell>
        <mxCell id="xz8o8cVdACZbKiwMYBgo-1" value="" style="strokeWidth=2;html=1;shape=mxgraph.flowchart.direct_data;whiteSpace=wrap;" parent="1" vertex="1">
          <mxGeometry x="379.5" y="1020" width="80" height="30" as="geometry" />
        </mxCell>
        <mxCell id="xz8o8cVdACZbKiwMYBgo-2" value="" style="endArrow=none;html=1;rounded=0;strokeWidth=3;exitX=0.5;exitY=1;exitDx=0;exitDy=0;entryX=0;entryY=0.5;entryDx=0;entryDy=0;entryPerimeter=0;fillColor=#647687;strokeColor=#314354;" parent="1" source="io0zbL7cQPA-m2ZbIYGQ-16" target="xz8o8cVdACZbKiwMYBgo-1" edge="1">
          <mxGeometry width="50" height="50" relative="1" as="geometry">
            <mxPoint x="400" y="790" as="sourcePoint" />
            <mxPoint x="450" y="740" as="targetPoint" />
            <Array as="points">
              <mxPoint x="-60" y="1035" />
            </Array>
          </mxGeometry>
        </mxCell>
        <mxCell id="xz8o8cVdACZbKiwMYBgo-3" value="" style="endArrow=none;html=1;rounded=0;strokeWidth=3;exitX=1;exitY=0.5;exitDx=0;exitDy=0;entryX=0.75;entryY=1;entryDx=0;entryDy=0;fillColor=#647687;strokeColor=#314354;exitPerimeter=0;" parent="1" source="xz8o8cVdACZbKiwMYBgo-1" target="io0zbL7cQPA-m2ZbIYGQ-21" edge="1">
          <mxGeometry width="50" height="50" relative="1" as="geometry">
            <mxPoint x="-50" y="740" as="sourcePoint" />
            <mxPoint x="390" y="1045" as="targetPoint" />
            <Array as="points">
              <mxPoint x="925" y="1035" />
            </Array>
          </mxGeometry>
        </mxCell>
        <mxCell id="xz8o8cVdACZbKiwMYBgo-4" value="" style="strokeWidth=2;html=1;shape=mxgraph.flowchart.direct_data;whiteSpace=wrap;" parent="1" vertex="1">
          <mxGeometry x="-20" y="916.99" width="80" height="30" as="geometry" />
        </mxCell>
        <mxCell id="xz8o8cVdACZbKiwMYBgo-5" value="" style="endArrow=none;html=1;rounded=0;strokeWidth=3;exitX=0.5;exitY=1;exitDx=0;exitDy=0;entryX=0;entryY=0.5;entryDx=0;entryDy=0;entryPerimeter=0;fillColor=#647687;strokeColor=#314354;" parent="1" target="xz8o8cVdACZbKiwMYBgo-4" edge="1">
          <mxGeometry width="50" height="50" relative="1" as="geometry">
            <mxPoint x="-60" y="730" as="sourcePoint" />
            <mxPoint x="380" y="1035" as="targetPoint" />
            <Array as="points">
              <mxPoint x="-60" y="932" />
            </Array>
          </mxGeometry>
        </mxCell>
        <mxCell id="xz8o8cVdACZbKiwMYBgo-6" value="" style="endArrow=none;html=1;rounded=0;strokeWidth=3;entryX=0.75;entryY=1;entryDx=0;entryDy=0;fillColor=#647687;strokeColor=#314354;exitX=1;exitY=0.5;exitDx=0;exitDy=0;exitPerimeter=0;" parent="1" source="xz8o8cVdACZbKiwMYBgo-4" target="io0zbL7cQPA-m2ZbIYGQ-23" edge="1">
          <mxGeometry width="50" height="50" relative="1" as="geometry">
            <mxPoint x="80" y="930" as="sourcePoint" />
            <mxPoint x="525" y="630" as="targetPoint" />
            <Array as="points">
              <mxPoint x="125" y="930" />
            </Array>
          </mxGeometry>
        </mxCell>
        <mxCell id="jIgSBM68Prdpu6QP9ATP-1" value="" style="strokeWidth=2;html=1;shape=mxgraph.flowchart.direct_data;whiteSpace=wrap;" vertex="1" parent="1">
          <mxGeometry x="780" y="810" width="80" height="30" as="geometry" />
        </mxCell>
        <mxCell id="jIgSBM68Prdpu6QP9ATP-2" value="" style="endArrow=none;html=1;rounded=0;strokeWidth=3;entryX=0.75;entryY=1;entryDx=0;entryDy=0;fillColor=#647687;strokeColor=#314354;exitX=1;exitY=0.5;exitDx=0;exitDy=0;exitPerimeter=0;" edge="1" parent="1" source="jIgSBM68Prdpu6QP9ATP-1">
          <mxGeometry width="50" height="50" relative="1" as="geometry">
            <mxPoint x="815" y="932" as="sourcePoint" />
            <mxPoint x="880" y="730" as="targetPoint" />
            <Array as="points">
              <mxPoint x="880" y="825" />
            </Array>
          </mxGeometry>
        </mxCell>
        <mxCell id="jIgSBM68Prdpu6QP9ATP-3" value="" style="endArrow=none;html=1;rounded=0;strokeWidth=3;entryX=0.75;entryY=1;entryDx=0;entryDy=0;fillColor=#647687;strokeColor=#314354;exitX=0;exitY=0.5;exitDx=0;exitDy=0;exitPerimeter=0;" edge="1" parent="1" source="jIgSBM68Prdpu6QP9ATP-1">
          <mxGeometry width="50" height="50" relative="1" as="geometry">
            <mxPoint x="740" y="825" as="sourcePoint" />
            <mxPoint x="760" y="730" as="targetPoint" />
            <Array as="points">
              <mxPoint x="760" y="825" />
            </Array>
          </mxGeometry>
        </mxCell>
      </root>
    </mxGraphModel>
  </diagram>
</mxfile>
